<svg version="1.1" id="Layer_1" xmlns="http://www.w3.org/2000/svg" xmlns:xlink="http://www.w3.org/1999/xlink" x="0px" y="0px"
	 width="100%" viewBox="0 0 1024 1024" enable-background="new 0 0 1024 1024" xml:space="preserve">
<path fill="#000000" opacity="1.000000" stroke="none" 
	d="
M158.969742,469.027405 
	C159.844391,463.695465 159.310287,458.118042 162.422180,453.188599 
	C164.088684,450.548737 166.174942,449.332947 169.133408,448.669159 
	C180.236954,446.177917 191.288773,443.456055 203.703156,440.500824 
	C194.327362,434.688721 186.266464,429.484894 177.985153,424.659332 
	C174.645996,422.713593 171.911591,420.022644 168.618668,418.083740 
	C167.499084,417.424530 166.808411,416.413513 167.036133,415.204895 
	C167.884323,410.703369 167.400696,405.897949 170.276810,400.975433 
	C179.103485,405.938171 187.812363,410.834686 196.372437,415.647552 
	C197.524719,414.733704 197.528442,413.362122 197.004196,413.283539 
	C190.444489,412.300751 187.087128,405.974060 181.273621,403.966858 
	C178.594482,403.041809 176.576904,401.886536 174.465393,399.843597 
	C171.548859,397.021759 166.766052,399.494629 164.274490,404.430511 
	C161.895294,401.007019 165.473083,395.058899 172.224564,391.577362 
	C166.422012,379.986633 171.712082,369.745422 176.722504,359.214478 
	C176.999771,359.002930 176.970734,358.977325 176.970734,358.977325 
	C179.207962,366.831787 177.721954,374.895050 178.318039,382.839661 
	C178.898880,390.580841 183.249268,396.535645 189.173248,400.612610 
	C192.247910,402.728638 195.369171,406.935394 200.858307,405.034210 
	C193.131592,401.907196 187.119553,397.184723 183.359955,390.041595 
	C176.682922,377.355438 178.575043,362.667023 188.190033,351.978180 
	C199.154251,339.789398 210.463837,338.420258 223.719284,343.294495 
	C226.961655,344.486725 227.685364,346.016449 226.468338,349.269653 
	C222.213837,360.642426 218.202255,372.106049 214.083786,383.529877 
	C213.703293,384.585297 212.849716,385.583984 213.946899,386.760742 
	C217.365677,382.990692 217.945114,377.990540 219.746170,373.560120 
	C221.504807,369.233948 222.741394,364.695587 224.529358,359.273224 
	C230.284454,370.678986 226.260193,379.852570 217.968750,386.061035 
	C219.430176,387.099182 220.495895,386.473267 221.434769,385.566559 
	C227.677979,379.537262 231.326752,372.453033 229.068130,363.614227 
	C228.216568,360.281677 229.395111,359.113342 232.098373,358.044495 
	C235.022659,356.888306 238.515030,356.599121 240.927490,352.930115 
	C235.656265,353.113037 232.427994,358.020813 227.673309,356.871185 
	C223.912949,352.091797 231.095352,350.154907 229.775391,345.913879 
	C238.328659,345.083344 246.820312,346.720428 254.967682,343.650177 
	C231.005035,347.034058 214.477753,338.741669 209.638123,314.166473 
	C207.625595,303.946960 214.259521,290.241425 228.948288,283.366394 
	C226.507492,280.016785 222.414825,279.015106 219.614410,276.368866 
	C216.853577,273.760010 212.741714,272.675507 210.697784,269.144470 
	C212.011627,267.945526 212.964752,268.515869 213.852432,268.879028 
	C216.014236,269.763489 218.135284,270.135529 219.696594,267.950897 
	C221.357437,265.626984 220.162827,263.450348 218.835495,261.499268 
	C218.004303,260.277466 216.781204,259.327576 215.777863,258.216003 
	C214.833115,257.169312 214.170364,256.002258 215.177505,254.643082 
	C216.171982,253.300949 217.596832,253.432739 218.778336,254.116013 
	C221.944305,255.946838 225.043945,257.899017 228.109131,259.896332 
	C246.511505,271.887451 264.864349,283.955078 283.317139,295.867920 
	C286.715485,298.061859 287.648743,300.072144 284.646881,303.284760 
	C283.302124,304.723938 282.272217,306.515900 281.349884,308.278809 
	C279.497559,311.819305 277.442688,314.404083 273.099060,310.280365 
	C274.019318,324.268646 267.901611,333.699921 257.058655,340.692078 
	C259.846954,341.530212 266.092499,338.692444 268.012268,335.413544 
	C271.004211,330.303497 274.976074,325.534210 274.814484,319.061890 
	C274.795746,318.311523 275.318024,316.900177 275.639648,316.885406 
	C280.894867,316.643555 281.240326,311.293396 284.111664,308.620026 
	C291.040253,302.169128 288.772888,295.517975 280.511353,290.908966 
	C276.101929,288.449005 271.574860,285.544586 267.302551,282.550232 
	C263.544098,279.915985 260.330505,275.524475 255.094986,275.290771 
	C252.299896,275.166016 252.548691,272.207031 250.525192,271.160278 
	C240.685410,266.070190 232.129288,258.951141 222.768570,253.102325 
	C219.345917,250.963776 214.925201,252.793228 210.685135,251.851028 
	C211.528229,249.107803 213.490921,248.069839 215.790833,247.534790 
	C219.169724,246.748734 220.594788,244.708939 221.108429,241.252991 
	C222.398331,232.574036 229.405533,223.322754 241.045151,222.811340 
	C247.303619,222.536362 253.718765,221.825027 258.743195,217.109848 
	C260.115356,215.822128 261.941193,216.431534 263.505890,217.035477 
	C266.805115,218.308914 268.948822,216.688873 271.552307,214.779877 
	C280.105713,208.508057 278.295868,199.504120 277.733978,191.232452 
	C277.116943,182.148682 283.442230,176.107132 292.125793,179.124542 
	C298.104614,181.202087 302.672455,179.362000 308.038849,176.535294 
	C320.220093,170.118958 325.905060,158.033020 334.496216,148.514969 
	C340.740601,141.596909 349.739594,139.043640 358.483917,142.079010 
	C359.897278,142.569626 361.342651,142.992706 362.801147,143.324326 
	C369.522949,144.852753 370.743256,143.756714 370.102844,136.850281 
	C369.461090,129.930008 376.523956,122.415382 384.315308,122.538147 
	C388.438049,122.603104 392.157288,121.178757 396.117950,120.836746 
	C397.930389,120.680229 398.989410,119.477257 399.664581,117.750587 
	C402.441223,110.649330 408.460968,106.790352 415.722260,109.629807 
	C424.613129,113.106491 432.950928,111.191788 441.589142,110.054329 
	C445.463257,109.544189 448.436127,108.016563 450.611938,104.610291 
	C453.755524,99.689026 457.719086,95.999306 464.140198,95.569809 
	C471.510468,95.076836 474.577057,89.126648 477.482544,83.538414 
	C479.154419,80.322777 480.068024,76.697464 481.185760,73.212578 
	C483.145813,67.101631 487.076416,63.246922 493.512726,62.249680 
	C496.967316,61.714428 500.442474,61.287388 503.920990,60.937046 
	C508.557220,60.470108 512.649109,61.648369 516.638672,64.288506 
	C525.004333,69.824654 534.157227,73.906914 543.614807,77.208298 
	C551.581116,79.989128 563.002014,72.062126 563.883667,63.313461 
	C564.033203,61.829750 564.012390,60.309196 563.888916,58.820705 
	C562.661316,44.021690 570.703735,35.477421 585.453247,34.952187 
	C597.737671,34.514736 609.232422,37.224312 620.506714,41.618282 
	C622.678101,42.464550 624.887024,43.249393 627.133179,43.862736 
	C635.826660,46.236530 643.263000,50.419441 649.744202,56.928463 
	C656.891785,64.106628 665.068481,70.257797 672.832153,76.772568 
	C680.135193,82.900848 688.932983,86.344994 699.268677,83.435287 
	C706.425232,81.420586 713.755920,79.804070 721.386658,79.810883 
	C738.308533,79.825996 750.120728,88.699127 761.201965,100.390015 
	C774.687073,114.616920 782.972107,132.727036 796.948181,146.463638 
	C798.846069,148.329056 800.743713,150.253479 802.899231,151.788742 
	C817.407043,162.121826 831.775146,172.674286 846.633667,182.481186 
	C853.380005,186.933868 861.027405,189.697433 869.520081,190.273727 
	C886.759827,191.443573 897.371216,195.881866 902.443909,215.046280 
	C906.771179,231.394516 917.460938,243.925461 927.455627,256.732727 
	C941.165649,274.301025 948.498962,294.304474 952.478699,315.862915 
	C953.068848,319.059998 952.879944,322.170746 951.950684,325.248352 
	C947.376587,340.396576 943.606689,355.722382 940.739807,371.302795 
	C939.440125,378.365997 936.397461,384.961426 931.221069,390.276703 
	C928.841187,392.720459 927.764038,395.945801 926.021362,398.769165 
	C923.927490,402.161591 921.609070,405.098755 916.756775,403.024689 
	C912.863403,401.360535 909.125305,402.166748 906.310974,405.414764 
	C902.802856,409.463531 901.884033,415.673645 904.213684,419.378326 
	C905.386292,421.243011 906.728943,423.093262 906.787476,425.256531 
	C907.039307,434.564941 908.397827,443.842957 908.531006,453.069855 
	C908.615295,458.904816 910.052490,462.569427 914.910889,464.479156 
	C920.805786,466.796295 922.991089,471.240204 925.320007,476.730865 
	C934.627014,498.672577 933.787964,521.467590 932.029358,544.371521 
	C931.529236,550.885559 928.815369,556.940125 925.789185,562.728943 
	C922.573303,568.880371 921.351196,575.295837 920.779297,582.298828 
	C919.561768,597.207031 915.745667,611.293945 901.053528,619.315735 
	C898.541870,620.687073 896.113159,621.983276 893.145996,622.093811 
	C889.323730,622.236145 886.153625,624.160095 883.205627,626.375183 
	C880.758118,628.214233 879.398254,630.536194 880.750122,633.753357 
	C881.559143,635.678589 881.265747,637.631409 880.453857,640.092529 
	C876.907043,635.165649 872.570984,631.075928 866.742615,633.800110 
	C862.574707,635.748230 857.121155,637.550354 857.202271,644.272278 
	C857.329773,654.834106 859.424011,658.658447 868.353455,662.609436 
	C868.237976,664.251038 867.052612,664.924133 865.706055,665.030151 
	C860.098877,665.471741 860.061218,669.271240 860.682251,673.335205 
	C861.800903,680.655334 865.485046,687.146667 867.595215,694.164734 
	C871.330811,706.587952 867.928650,717.803467 856.961609,724.920105 
	C846.149841,731.936096 836.192932,739.906128 826.981201,748.868713 
	C824.936096,750.858582 823.200317,753.079956 821.839783,755.586914 
	C821.523010,756.170471 821.416748,756.898560 821.014832,757.401306 
	C814.787903,765.190002 809.474731,773.361084 807.121826,783.335632 
	C806.293213,786.848145 802.615723,789.012451 799.483948,790.971191 
	C790.249756,796.746887 786.143311,806.468628 780.832092,815.232239 
	C779.431396,817.543457 779.771484,820.434448 779.899536,823.092224 
	C780.278503,830.958557 778.204712,838.263428 775.055298,845.351074 
	C773.314453,849.268738 770.764160,852.532288 767.029968,854.664124 
	C760.810791,858.214478 754.603027,861.810730 748.195557,864.995544 
	C744.237671,866.962646 739.831238,866.840332 736.433838,863.773438 
	C725.187195,853.620667 710.837585,850.650879 697.044983,846.415833 
	C694.731873,845.705505 692.090759,845.969116 689.599792,845.947388 
	C673.795898,845.809387 673.068420,833.318542 677.408752,824.528137 
	C680.683228,817.896423 679.515503,815.359924 672.331970,814.573364 
	C670.727112,814.397644 669.177063,813.720398 667.463379,813.234802 
	C665.566650,815.955139 667.059875,819.303711 665.409973,821.896240 
	C664.214966,822.367554 662.553528,822.157898 662.403564,821.161255 
	C661.326050,814.001648 657.157776,807.956543 655.436340,800.958801 
	C654.293213,796.311890 653.064453,791.317627 649.826965,787.173706 
	C647.728027,784.487000 647.344727,780.657104 646.184143,777.429382 
	C645.077698,774.352356 643.923828,771.119934 643.062256,767.936340 
	C641.844055,763.434875 638.715088,763.570496 636.213196,764.691772 
	C631.556335,766.778870 626.721375,768.386169 622.093445,770.487427 
	C619.352478,771.731934 619.484985,774.153870 620.868652,776.383118 
	C621.539307,777.463501 622.986206,778.060181 622.825256,779.809631 
	C622.490784,780.764404 620.853271,778.535156 620.658813,780.574951 
	C620.497375,782.267517 621.085144,783.399597 622.141418,784.584351 
	C629.067749,792.352722 630.594299,801.768372 629.820251,811.656250 
	C629.597046,814.506958 626.798767,817.117859 624.475891,817.671875 
	C621.360168,818.414978 620.502625,820.935059 618.507812,822.455750 
	C616.765259,823.784119 616.729187,825.842834 618.187012,827.267883 
	C621.947998,830.944336 619.844299,834.724487 619.435791,838.334961 
	C616.807678,839.097290 616.199829,836.508057 614.327209,836.656250 
	C612.740601,837.470276 613.048401,838.938354 613.652222,840.060181 
	C617.199524,846.649780 620.918640,853.218506 627.384705,857.405762 
	C630.265015,859.270874 632.681030,861.443420 634.621399,864.157776 
	C638.845886,870.067566 638.671631,874.717407 633.741089,879.809021 
	C629.729492,883.951843 628.172302,889.178284 626.359680,894.369202 
	C622.876892,904.342834 622.215698,904.800781 611.736938,904.912109 
	C609.208801,904.939026 606.820007,905.394165 604.401123,906.167847 
	C595.348328,909.063354 590.094727,906.211670 587.487000,897.180786 
	C585.899353,891.682678 577.396790,886.991699 571.798340,888.973938 
	C568.385376,890.182373 566.145752,889.172119 563.642578,886.801392 
	C566.592529,883.552246 571.477600,886.111389 574.011841,882.907532 
	C573.922058,881.521179 572.894531,881.246216 571.999268,880.847229 
	C563.770264,877.179749 560.073853,870.677185 560.011353,861.839966 
	C559.990234,858.855591 560.048462,855.890137 559.054749,852.950012 
	C555.772339,843.238220 559.776917,837.144043 570.038086,836.013000 
	C571.526733,835.848938 573.048584,835.919678 574.518677,835.668823 
	C576.948242,835.254211 578.997437,834.122437 579.694031,831.570496 
	C580.348145,829.173767 579.049805,827.476868 577.356750,825.917175 
	C573.126709,822.020203 573.288452,821.307556 577.588257,817.486694 
	C583.058411,812.625732 588.360474,807.573792 593.677307,802.543152 
	C595.475891,800.841431 596.010010,798.558716 596.004272,796.143127 
	C595.999573,794.144592 595.797791,792.128296 595.994812,790.150940 
	C596.498352,785.099548 600.328003,782.616577 605.165344,784.051697 
	C611.054260,785.798767 614.103699,784.064697 616.270325,778.531738 
	C617.449707,775.519714 619.156372,772.796143 619.638611,769.439392 
	C619.920349,767.478210 621.926086,766.093445 623.943665,765.627441 
	C629.900024,764.251465 633.567444,759.260071 638.640320,756.501953 
	C639.230957,756.180725 639.735657,755.133789 639.751038,754.412109 
	C639.871521,748.772827 643.199463,747.927124 648.081665,747.708313 
	C653.596497,747.461121 657.941467,743.550537 662.683655,741.032593 
	C664.090759,740.285461 665.109131,738.652771 666.838013,738.438782 
	C671.654785,737.842468 675.817078,736.199036 678.634338,731.953674 
	C679.057373,731.316101 679.987976,730.583801 680.657593,730.608398 
	C687.120850,730.845947 691.869141,726.860229 696.925537,723.892944 
	C702.320068,720.727173 707.438965,716.915405 711.574951,712.245972 
	C715.005127,708.373291 714.793701,703.116577 713.480652,698.387756 
	C711.858459,692.545654 712.354370,687.642273 717.073730,683.402649 
	C719.421143,681.293823 719.909363,678.294067 720.130249,675.189880 
	C720.422424,671.083496 721.324646,667.585327 727.029419,668.667419 
	C730.424683,669.311340 733.249878,665.231873 737.891052,667.772827 
	C739.274658,646.188354 750.675476,630.001648 761.940430,613.228577 
	C760.285767,611.552124 758.670959,613.616943 757.126770,614.223694 
	C750.037720,617.009888 743.299927,620.762146 735.211548,620.158325 
	C729.231201,619.711914 727.994324,618.359863 728.781677,612.384644 
	C729.506226,606.886353 732.603516,602.850281 736.346924,599.230469 
	C739.061279,596.605652 741.241882,593.863586 741.794250,589.989075 
	C742.248169,586.805115 744.011414,585.841980 747.144775,587.029907 
	C754.604797,589.858215 760.639160,586.962219 765.441345,581.491211 
	C768.484009,578.024719 771.780823,575.117126 775.862183,573.127258 
	C778.681580,571.752625 780.929810,569.826904 782.257874,567.050232 
	C786.341431,558.512329 791.073364,550.155212 789.833313,540.080811 
	C789.255371,535.385986 790.857849,531.264282 793.620483,527.467712 
	C795.628418,524.708191 798.076599,522.933105 801.557678,523.106934 
	C806.531921,523.355225 809.008423,520.699585 809.642517,516.140442 
	C810.410828,510.616760 812.213135,505.568695 814.904053,500.653168 
	C817.974365,495.044464 813.824402,489.612305 807.122925,489.960785 
	C797.423706,490.465118 797.427002,490.464233 794.976196,481.371796 
	C794.760559,480.571716 794.662964,479.629517 794.172119,479.030640 
	C787.807495,471.264099 786.023071,461.766449 783.508240,452.418854 
	C781.681763,445.630157 779.586670,439.016571 779.810791,431.892273 
	C780.074097,423.525116 775.410950,417.290771 770.040833,411.830505 
	C764.092163,405.781830 759.507629,399.337219 756.643311,391.158539 
	C753.138855,381.152283 743.921509,376.069977 735.427490,370.793518 
	C722.549194,362.793457 710.343018,354.130615 699.456177,343.356812 
	C690.042786,334.041168 681.011780,324.729523 674.928833,312.841370 
	C670.682129,304.541931 668.047852,295.307312 662.337952,287.897797 
	C647.779480,269.005920 631.044556,253.216385 605.270020,251.885651 
	C603.150330,251.776215 600.909363,251.303787 598.992554,250.419479 
	C587.064697,244.916733 575.223877,246.561310 563.533142,250.899597 
	C558.503113,252.766190 554.832336,256.967285 550.491150,260.032715 
	C546.138245,263.106384 541.922363,266.373932 537.641663,269.550049 
	C531.311157,274.246979 524.497986,274.214966 517.821411,270.817078 
	C510.595703,267.139679 504.576813,261.972778 500.688416,254.589691 
	C493.230438,240.428802 480.936523,233.831955 465.412415,233.023087 
	C456.772614,232.572906 448.088470,232.996078 439.424377,232.979279 
	C435.965149,232.972565 432.722565,233.790283 430.097229,236.006088 
	C421.845062,242.970947 411.759033,246.030319 401.848389,249.424484 
	C398.683075,250.508530 395.477081,251.475021 392.630829,253.210190 
	C387.057343,256.607971 381.408508,257.886780 374.636627,257.289459 
	C366.619415,256.582245 359.206146,260.738708 351.718811,263.378113 
	C349.058075,264.316071 348.430206,267.049988 350.200684,269.176483 
	C356.537750,276.787781 357.264740,286.970428 362.637604,295.153534 
	C366.553894,301.118134 365.634613,309.010742 366.870331,316.032288 
	C369.167999,329.088654 369.126343,342.583649 375.030518,354.930817 
	C377.012146,359.074951 376.116669,363.604675 373.867798,367.449036 
	C371.352814,371.748291 368.428009,375.849976 365.316864,379.746460 
	C362.260071,383.574829 352.764191,383.972076 346.472412,380.909729 
	C341.510864,378.494873 341.816254,374.148102 342.384827,369.704559 
	C343.494293,361.033966 344.155396,352.584045 338.585632,344.746979 
	C335.777283,340.795471 335.843536,335.554413 334.905975,330.828156 
	C332.926880,320.851562 328.629486,316.533844 318.491913,317.627869 
	C306.658234,318.904968 294.816559,320.828613 283.228241,323.815613 
	C279.267914,324.836395 277.733490,327.416077 277.985168,331.630096 
	C278.548370,341.059845 280.456207,350.429321 279.187378,359.962036 
	C278.805695,362.829529 280.341278,365.451904 281.535828,368.029755 
	C283.999329,373.346039 284.660736,378.861511 283.401794,384.608276 
	C281.511993,393.234680 279.521362,401.769073 275.796295,409.907440 
	C271.972809,418.260834 269.699921,427.177673 268.980347,436.414337 
	C268.419373,443.614502 266.655884,450.634552 264.211700,457.317596 
	C260.643494,467.074097 261.817780,476.254852 265.414703,485.549866 
	C270.131683,497.739349 278.841797,507.318542 286.381836,517.641418 
	C288.856140,521.028931 293.023468,522.631531 296.652039,524.633667 
	C302.653137,527.944885 306.597015,532.790649 308.896790,539.184509 
	C313.512909,552.018677 320.319061,564.007507 323.518005,577.403931 
	C324.357727,580.920471 327.347046,583.320923 329.754669,585.724243 
	C343.880920,599.825134 356.344879,615.570251 371.803101,628.346863 
	C374.110443,630.253967 376.357574,632.360046 378.962494,633.760254 
	C393.992096,641.838806 407.247314,652.469666 420.839294,662.610596 
	C424.580200,665.401672 427.764496,668.844910 430.671417,672.525269 
	C432.112915,674.350342 433.445007,676.401672 435.265228,677.764954 
	C446.448090,686.140503 452.367126,698.852234 461.343750,708.952271 
	C469.978516,718.667664 478.826385,728.670288 491.566742,733.720398 
	C498.106354,736.312561 504.497040,739.601196 508.324036,745.788757 
	C514.644104,756.007202 513.848816,766.881836 509.120300,777.313660 
	C507.213165,781.521118 508.018738,782.789673 511.858551,784.129578 
	C514.731445,785.132019 518.127869,785.321533 521.288147,789.430664 
	C507.569885,787.741882 495.043396,786.346497 482.646332,787.568481 
	C488.578735,789.021912 495.047638,789.078979 501.125946,791.454773 
	C494.278503,795.860107 493.806732,798.695984 500.427521,803.266479 
	C504.646301,806.178894 505.015045,810.771729 507.514191,814.349426 
	C508.762573,816.136719 507.319000,818.090698 505.492920,819.388062 
	C502.705505,821.368408 499.410492,822.740112 497.228546,827.369446 
	C494.600983,819.294617 498.533844,812.838074 497.819946,805.717163 
	C488.076233,804.956909 478.556671,801.165344 468.475861,804.396729 
	C463.650421,805.943481 459.861450,808.648071 456.995178,812.721558 
	C449.140686,823.884033 449.202515,831.631470 457.163239,842.851990 
	C458.011169,844.047119 459.171906,845.144897 458.646149,846.926208 
	C456.465576,848.497742 455.281281,846.636536 454.118378,845.416992 
	C450.433624,841.552551 448.169617,836.905884 447.953186,831.567383 
	C447.705872,825.466736 447.895935,819.348389 447.895935,813.009338 
	C442.426025,815.177917 439.843170,819.038452 441.080627,823.458496 
	C441.883850,826.327698 440.708130,828.751404 440.194611,831.271667 
	C438.828674,837.975830 439.744415,844.119141 443.549133,849.825134 
	C443.991150,850.488037 444.507263,851.220581 443.936432,852.092529 
	C438.356506,849.875671 432.603638,835.566467 432.953918,828.207031 
	C433.957855,807.111816 444.269257,793.346558 466.036957,787.681213 
	C458.272797,786.561584 453.365387,789.676880 447.870758,792.862305 
	C442.338959,796.069275 438.640228,799.930542 436.023987,805.989197 
	C434.048401,795.710327 436.278625,784.263428 425.511261,777.196777 
	C425.034180,777.004150 424.722656,776.723022 424.696655,776.387939 
	C420.789886,769.442139 414.907928,765.755676 407.482697,764.397827 
	C406.038544,764.133667 404.406982,764.722961 403.113586,763.778381 
	C397.737030,759.852234 392.212524,760.202942 386.687195,763.258972 
	C382.901459,765.352844 380.819977,764.365601 380.659454,759.863464 
	C380.576599,757.539734 379.863098,755.998108 378.170197,754.280090 
	C372.709717,748.738831 366.958954,743.691040 360.491058,739.278259 
	C355.488159,735.864929 349.779785,734.527344 344.377350,732.631042 
	C338.144806,730.443420 332.271240,733.471130 327.652954,737.817932 
	C325.322388,736.638489 325.762024,734.807434 325.724945,733.221436 
	C325.643250,729.725891 325.616425,726.226562 325.675354,722.730713 
	C325.786316,716.148926 322.629608,710.432922 317.992004,706.948608 
	C312.087860,702.512695 309.337494,693.544739 300.070068,693.769104 
	C297.720673,689.090698 293.311371,690.742615 289.560089,690.326111 
	C285.712555,689.898926 284.092010,691.445190 284.238251,695.415405 
	C284.387970,699.480835 284.649414,703.617310 283.550842,708.412842 
	C278.086670,705.255310 275.444305,697.845520 267.958191,699.566040 
	C267.955872,698.691406 267.853607,697.931580 268.127411,697.755005 
	C273.602509,694.225647 279.059906,690.660889 284.658813,687.335388 
	C287.106171,685.881836 288.959808,683.877930 290.293427,681.586548 
	C291.054779,680.278442 289.352631,679.385559 287.887268,678.664062 
	C287.290375,672.845703 283.008118,670.007629 279.542267,666.598572 
	C282.480713,670.657043 283.772095,675.817871 288.069214,679.298523 
	C288.870941,682.400818 286.423523,682.911011 284.884583,683.920471 
	C270.700684,693.225098 256.463470,702.448608 242.274048,711.744934 
	C236.499359,715.528320 236.535629,715.583313 232.869324,709.815186 
	C232.154694,708.690918 231.560562,707.462219 230.699631,706.463867 
	C228.016205,703.351929 226.553101,700.289368 230.991165,697.221985 
	C228.566010,696.000061 226.543304,695.188782 224.737091,694.037781 
	C210.742630,685.119751 201.394318,663.364929 222.480103,649.386230 
	C229.138062,644.972412 235.714981,640.436218 242.378906,636.031555 
	C253.802734,628.480652 253.733536,628.562561 261.343323,640.009155 
	C263.298248,642.949707 262.903870,644.597107 260.014435,646.422180 
	C252.001205,651.483826 243.980057,656.551575 236.201096,661.960693 
	C227.164307,668.244446 226.831635,676.228210 234.946259,683.487366 
	C238.692215,686.838318 245.439819,687.094849 251.298752,683.512146 
	C259.099396,678.742188 266.667175,673.590698 274.315063,668.572693 
	C275.238770,667.966614 276.379852,667.369751 275.920288,665.865601 
	C274.435425,664.996094 273.529114,665.888855 272.419373,666.746277 
	C270.388763,668.315125 268.337097,670.003418 266.022583,671.028870 
	C260.399841,673.520020 255.736130,677.575745 250.802521,680.966797 
	C244.697891,685.162659 237.760651,685.778809 233.557037,679.720825 
	C232.228119,677.805786 231.887100,675.197083 229.575134,673.347778 
	C232.482758,671.424500 232.034012,667.361206 234.606216,666.066223 
	C239.021210,663.843689 242.396454,660.274292 246.689804,657.907410 
	C252.271088,654.830566 257.575104,651.212219 262.795593,647.538696 
	C264.847900,646.094482 265.563477,642.912476 264.361298,641.192322 
	C261.424957,636.990662 260.096375,631.813477 256.188538,628.216309 
	C254.389038,626.559875 252.067947,625.363464 250.402740,626.815125 
	C245.414291,631.163879 239.674530,634.137817 234.169205,637.612183 
	C227.550034,641.789612 220.792526,646.223999 215.176529,652.186096 
	C209.135574,658.599243 206.880615,665.710876 207.362640,674.113220 
	C207.409317,674.926880 207.455002,675.864014 207.865494,676.513672 
	C210.806427,681.168579 214.013885,685.664612 216.761307,690.427612 
	C217.841721,692.300659 219.481064,693.033081 220.875854,694.279785 
	C222.765961,695.969299 226.620697,695.981140 226.298874,699.923462 
	C225.816177,705.836060 229.840607,709.661255 233.086670,713.770996 
	C235.786011,717.188538 240.148529,716.770203 242.345047,714.665649 
	C246.782898,710.413574 252.369003,708.229492 257.320892,705.054321 
	C260.459564,703.041870 262.678162,697.822754 268.017822,700.396973 
	C268.091034,701.843140 267.619537,702.573608 266.722778,703.239075 
	C262.365143,706.473450 259.584106,711.464233 258.749603,716.139648 
	C257.594971,722.608582 254.381363,729.165405 258.045685,736.356567 
	C260.588104,741.346008 260.741150,747.566284 266.521790,750.638306 
	C267.079742,750.934814 267.764404,751.368408 267.966858,751.899719 
	C269.750153,756.578857 273.414124,758.041016 278.027252,758.267944 
	C282.182007,761.086853 286.346832,763.505615 291.158875,764.733643 
	C297.469879,766.343933 301.052612,759.689575 306.823730,759.811340 
	C306.869324,759.812256 306.939880,758.629883 307.398560,757.961060 
	C312.402557,757.820740 315.145599,755.523743 316.366699,750.968262 
	C318.681274,751.157288 318.669067,752.756958 319.313507,754.111572 
	C321.550354,758.813416 322.879883,764.045227 327.125366,767.635132 
	C332.324890,772.031799 337.076447,776.888306 341.500702,782.196655 
	C338.179291,784.775757 336.516479,780.918091 334.183472,780.601562 
	C328.356262,779.811157 325.727783,775.338806 323.031555,771.406555 
	C319.820312,766.723267 317.354584,765.739624 312.970520,769.268616 
	C302.857666,777.409058 302.711151,777.548096 311.622437,786.939880 
	C319.936554,795.702332 329.487518,802.459229 342.168152,803.166931 
	C342.407532,803.180237 342.632202,803.457214 342.885773,803.625793 
	C342.235718,803.850403 341.627197,804.060608 339.545929,804.779602 
	C343.059509,804.779602 345.637909,805.581299 347.062561,804.638916 
	C352.809204,800.837402 360.843170,799.382202 361.552673,790.188049 
	C365.157349,792.182495 364.487396,794.897400 364.093079,796.841431 
	C362.758881,803.418396 364.780640,809.712036 368.083008,814.513062 
	C373.726257,822.717346 382.061249,828.778198 391.751892,831.395935 
	C397.347229,832.907410 403.665009,831.815430 409.656250,831.756226 
	C412.127747,831.731812 412.754669,830.203857 412.003021,827.994873 
	C411.999695,827.999451 411.986237,828.006104 411.986237,828.006104 
	C420.042328,827.696106 425.917999,824.106323 428.784241,816.581970 
	C430.162292,816.537415 430.825134,817.064331 430.924622,817.971558 
	C431.617188,824.286377 431.489288,830.635559 430.958710,836.929749 
	C430.707733,839.907043 427.879211,839.867859 425.495636,839.561890 
	C420.464417,838.916138 419.418915,839.988953 420.362579,845.156433 
	C421.178009,849.621582 422.836884,853.838379 425.047363,857.753906 
	C427.026886,861.260315 429.051208,864.756104 429.824402,868.691833 
	C431.792664,878.710815 438.832520,886.348145 442.214386,895.697083 
	C443.519409,899.304749 446.277466,901.479980 450.323914,901.027954 
	C464.973358,899.391418 478.778870,903.493530 492.502899,907.498169 
	C502.024017,910.276428 511.396637,907.194885 520.823242,907.992065 
	C525.124146,908.355774 529.483765,907.991455 533.816162,908.027954 
	C536.579102,908.051208 539.341309,908.521667 540.539795,911.380310 
	C541.748413,914.263245 539.239624,915.797913 537.767883,917.779419 
	C529.117371,929.425537 516.971558,936.557861 504.778290,943.659302 
	C500.827911,945.960144 496.715790,946.527161 492.268860,945.374695 
	C488.390076,944.369324 484.420776,943.981445 480.391937,943.936829 
	C467.549561,943.794617 457.847778,936.785706 448.475372,929.111572 
	C445.613739,926.768494 446.170227,922.982849 444.634094,920.051575 
	C442.183563,915.375549 439.229919,910.990662 438.385071,905.476929 
	C437.770355,901.465088 434.722076,900.642883 431.187927,902.706665 
	C430.901306,902.874023 430.638367,903.082703 430.368073,903.277222 
	C418.439667,911.863831 417.321625,911.876221 405.871338,902.864319 
	C402.957275,900.570801 399.957489,898.104919 396.366089,897.522461 
	C381.732971,895.149170 371.017426,885.384644 358.990875,878.135559 
	C354.247284,875.276367 349.602936,872.568604 344.076935,871.433899 
	C335.071991,869.584717 328.719147,862.963379 321.475281,858.069092 
	C312.245605,851.833130 304.389313,843.755554 294.832336,837.855530 
	C286.086090,832.456177 277.666656,826.527832 269.094635,820.845520 
	C267.120300,819.536804 265.528351,817.875488 264.161865,815.948303 
	C261.801086,812.618896 258.814789,809.743286 255.089157,808.283752 
	C232.477295,799.425842 217.615799,781.238953 201.771332,764.261963 
	C198.219727,760.456543 194.154984,757.292480 190.302368,753.881836 
	C182.960999,747.382629 179.294205,738.502563 174.353500,730.454468 
	C166.352036,717.420532 158.501984,704.288025 151.507477,690.677979 
	C148.542236,684.908142 145.738419,679.034546 143.240875,673.049683 
	C138.658127,662.068054 139.774948,650.858032 142.636642,639.703613 
	C143.711563,635.513611 146.913757,632.613403 149.601791,629.460632 
	C151.248581,627.529114 153.357132,628.464783 155.143784,629.282837 
	C158.475281,630.808350 161.777954,631.133911 165.347229,630.197083 
	C169.658585,629.065369 173.253937,630.673279 176.099167,633.887268 
	C178.392731,636.478149 180.748383,637.770142 183.694092,635.149597 
	C188.812912,639.302734 190.395432,645.469666 193.762177,650.474609 
	C195.846481,653.573120 198.834137,653.481628 201.565018,651.451111 
	C211.234650,644.261169 218.885468,634.887268 227.825867,626.890625 
	C233.071320,622.198914 237.554932,616.644226 242.879456,612.055847 
	C247.036713,608.473267 246.354813,603.919800 245.091751,600.320251 
	C244.104385,597.506409 242.687714,594.779602 242.116287,591.718445 
	C241.878601,590.445068 241.184204,589.130005 238.984116,589.386902 
	C240.539078,593.703003 241.884354,598.028198 243.661163,602.168091 
	C244.915161,605.089905 244.356689,607.180054 242.152802,609.278442 
	C228.043991,622.711975 213.953720,636.165344 199.930603,649.688171 
	C197.173920,652.346436 195.492126,651.763977 194.873322,648.280701 
	C194.332352,645.235535 191.340515,642.851868 192.551193,639.128540 
	C194.759888,638.853577 196.627319,641.478638 199.052658,639.881287 
	C201.491989,638.274841 202.814621,635.941101 201.659744,633.529602 
	C198.764877,627.484924 202.572586,623.839539 205.918427,620.068237 
	C210.538696,614.860413 215.403778,609.869690 220.249695,604.694580 
	C212.980499,604.234863 205.288895,603.237854 197.625793,603.422729 
	C191.306198,603.575134 185.532898,601.357910 179.513290,600.415039 
	C175.914413,599.851257 174.816116,595.143005 174.032425,591.175232 
	C174.819611,591.338928 175.332535,591.316345 175.399307,591.478027 
	C179.186829,600.645874 186.402481,599.609375 194.075607,598.084961 
	C197.996689,597.305969 198.660126,595.943115 196.337524,592.847107 
	C195.753403,592.068420 195.258026,591.223267 194.126572,589.504150 
	C206.883698,586.158203 219.356033,589.208130 231.399582,587.582825 
	C226.098145,585.972229 220.550522,585.205383 214.794418,585.268372 
	C201.296722,585.416077 187.796127,585.337646 174.296951,585.286438 
	C170.395889,585.271667 166.774017,585.248230 169.001343,590.941772 
	C169.470657,592.141479 168.993195,593.371155 167.722351,593.824280 
	C166.077942,594.410583 164.397324,594.297058 163.098022,592.926453 
	C160.233459,589.904724 161.331055,582.054138 164.775909,579.755737 
	C166.834625,578.382202 168.666397,578.190308 170.744934,579.649963 
	C171.867828,580.438416 173.379028,580.892151 174.295166,579.459900 
	C175.346390,577.816467 174.257263,576.293335 172.863983,575.773193 
	C163.885529,572.420959 161.364853,563.732178 157.497528,556.521423 
	C155.002426,551.869141 153.957321,546.105774 153.579056,540.747375 
	C153.215515,535.597290 157.374146,531.386536 158.596542,526.314453 
	C160.756927,517.350159 168.112946,511.833130 174.027710,505.454681 
	C175.680511,503.672333 178.291153,502.692139 176.884018,499.237579 
	C180.155273,499.007233 182.916321,498.812805 185.677368,498.618378 
	C173.310303,497.671783 160.760071,498.621185 148.852951,494.488922 
	C148.342209,491.402771 154.050827,489.765076 150.553223,486.929108 
	C146.657120,483.769989 142.069916,483.366943 137.535812,487.173492 
	C136.135712,483.140472 136.992706,480.789612 140.866959,480.237518 
	C143.493759,479.863220 146.183304,479.863525 148.846741,479.822357 
	C170.501831,479.487823 192.168472,480.120209 213.815414,479.027985 
	C216.277863,478.903748 218.751984,479.011169 221.720505,479.011169 
	C220.581970,476.235443 218.614655,476.543030 216.980072,476.536163 
	C190.982605,476.426575 164.984894,476.372681 138.987335,476.286102 
	C134.813599,476.272217 133.450256,479.139954 133.191299,482.449738 
	C132.766022,487.885376 132.399567,493.373505 133.719818,498.867157 
	C131.301941,498.625183 132.187271,496.751526 132.083267,495.556763 
	C131.721008,491.394684 132.701889,487.265472 130.173798,483.146484 
	C128.302429,480.097504 132.438248,473.321991 137.561615,472.247772 
	C148.779785,469.895721 150.892349,460.411102 154.868652,452.246979 
	C155.711914,450.515625 155.629166,448.234772 158.822403,447.339355 
	C158.924957,451.446075 160.494202,455.156219 157.317337,458.947571 
	C155.010849,461.700195 155.943512,467.385620 159.064789,469.250244 
	C161.378799,469.461365 163.096298,469.323700 164.655441,469.756500 
	C169.956161,471.227936 173.881119,466.673401 178.757050,466.682343 
	C185.163345,466.694061 190.688797,462.594421 197.152802,462.948425 
	C197.855301,462.986908 198.729935,462.409454 198.678146,461.224304 
	C197.622070,459.643829 196.033249,460.306061 194.697754,460.628357 
	C189.548721,461.870941 184.465759,463.398285 179.298233,464.550598 
	C172.526550,466.060577 165.953445,468.485199 158.969742,469.027405 
M350.858154,226.247269 
	C351.392822,222.361893 348.458740,220.744354 346.029877,218.791061 
	C347.418640,221.697983 348.095978,225.035843 351.255005,227.641785 
	C357.402496,238.293137 357.402466,238.293076 346.715271,245.147705 
	C346.158661,245.504745 345.582886,245.836121 345.051270,246.227325 
	C342.623352,248.013870 340.765869,247.418030 339.361816,244.891602 
	C338.163483,242.735352 337.232239,240.382675 334.822571,238.319016 
	C328.590729,227.323242 320.853699,217.313354 314.090057,206.666504 
	C307.897034,196.917831 308.046082,197.073471 317.001587,190.144333 
	C320.316254,187.579712 322.925568,186.104996 325.940552,190.586365 
	C327.217346,188.170670 328.107513,186.212357 329.245331,184.410431 
	C330.390869,182.596252 331.631042,180.795364 333.093597,179.236130 
	C338.441437,173.534821 339.974335,173.706665 344.339752,180.125397 
	C344.817230,180.827454 345.097748,182.116501 346.662781,181.412460 
	C345.646515,178.145950 342.999939,176.028748 341.147736,173.416183 
	C339.917389,171.680756 337.440216,171.741211 336.266296,173.059845 
	C334.039581,175.561081 331.108948,177.352921 329.330536,180.317551 
	C328.205658,182.192719 326.574799,185.229889 325.180450,185.224594 
	C319.083710,185.201385 315.032898,189.600693 309.840088,191.374237 
	C305.991119,192.688812 305.333801,196.229370 306.856567,199.116547 
	C309.960785,205.002121 313.866516,210.477402 317.392517,216.127716 
	C321.255371,222.317917 325.447540,228.376282 329.341370,234.591156 
	C330.728729,236.805557 332.406219,238.444351 335.171387,239.796844 
	C334.545593,243.754974 336.525177,246.823547 339.742371,248.116623 
	C342.782532,249.338531 346.425446,249.470551 348.949463,245.955231 
	C349.856323,244.692230 351.430176,243.738998 352.896729,243.089005 
	C354.813538,242.239441 357.825043,243.137787 357.686340,239.485382 
	C357.592529,237.015884 358.314758,233.994827 356.451385,232.381516 
	C354.500977,230.692810 355.870941,225.506165 350.858154,226.247269 
M828.178650,467.755066 
	C828.719727,473.512848 833.880859,474.808716 837.707275,476.983978 
	C842.228577,479.554321 846.252991,484.241882 853.891907,481.753754 
	C842.524414,480.003723 834.810669,474.240601 827.756531,466.342682 
	C826.057983,462.740967 824.111511,459.233063 822.706665,455.520203 
	C818.128174,443.420013 817.338745,430.561127 815.610840,417.909821 
	C813.928162,405.589661 814.069580,405.572662 826.681030,404.586609 
	C826.892639,404.570038 827.081177,404.258423 827.372192,404.004456 
	C825.465332,403.918396 823.612732,404.086517 821.881470,403.704681 
	C818.160583,402.884216 814.716675,404.053345 813.162231,406.996185 
	C811.414612,410.304626 811.122131,414.899780 813.333069,417.940094 
	C815.027649,420.270325 815.666443,422.397308 815.257690,424.700867 
	C813.576599,434.174347 818.629822,442.741180 818.700989,451.969208 
	C818.710327,453.177094 819.193420,454.997101 820.789185,455.729248 
	C822.317322,456.430328 822.293579,457.832275 822.288574,459.142029 
	C822.273132,463.170044 824.700500,465.396545 828.178650,467.755066 
M878.588806,541.523804 
	C871.332397,550.593567 861.729675,553.879944 850.384399,553.260376 
	C845.855103,553.013062 843.834961,551.304016 844.461365,546.553406 
	C845.568726,538.156067 846.451782,529.728027 847.327515,521.302246 
	C847.527588,519.377686 848.358154,517.042847 845.113525,515.588440 
	C843.663208,520.818298 844.601807,525.778748 844.307495,530.638550 
	C843.999023,535.731384 845.663635,541.181091 842.921692,545.821472 
	C840.661377,549.646851 841.935852,552.713379 844.663025,554.441589 
	C847.673462,556.349304 851.839417,557.809875 855.291687,556.778259 
	C860.908508,555.099854 866.278625,552.453552 871.683655,550.067688 
	C876.254028,548.050293 878.884033,545.931091 879.662354,540.772949 
	C885.354492,536.621765 886.745728,532.576660 884.719238,525.441284 
	C883.956177,531.269226 881.639954,536.196472 878.588806,541.523804 
M874.249695,340.829041 
	C860.048523,338.006409 845.637207,336.790131 831.286072,335.088898 
	C828.544800,334.763947 827.506531,335.626740 826.450867,337.935699 
	C823.067627,345.335815 819.275940,352.550293 815.936157,359.968933 
	C813.047302,366.385925 809.287415,372.449799 807.591492,379.384155 
	C817.047119,366.607727 821.834290,351.553131 828.812805,337.222565 
	C835.884705,339.532104 843.548401,338.452301 851.136169,338.704163 
	C852.789001,338.759033 854.899536,338.356812 856.009949,339.202026 
	C862.052429,343.801453 868.583313,341.369415 875.486633,340.622620 
	C877.832642,337.689056 875.640442,335.444885 874.333130,333.071869 
	C873.016846,330.682434 870.232300,329.365723 869.673706,326.379272 
	C868.685120,321.093323 866.506897,319.124847 861.001099,319.443512 
	C853.002625,319.906403 845.410034,318.824738 837.983215,315.002502 
	C840.954956,311.351257 843.018799,307.342682 843.160278,302.566223 
	C840.123596,307.413208 837.184631,312.285034 835.465515,318.379303 
	C837.595154,318.814453 839.319641,319.342316 841.076660,319.494080 
	C847.203186,320.023193 853.342957,320.396759 859.473328,320.884521 
	C861.612366,321.054718 864.400696,320.749268 865.496277,322.655273 
	C868.929565,328.628540 873.814819,333.890045 874.249695,340.829041 
M252.644409,322.841553 
	C258.674225,318.979401 261.029144,312.863190 259.071075,306.149994 
	C257.326111,300.167511 248.191238,293.430878 241.946991,293.521606 
	C235.468872,293.615784 230.090027,297.937958 227.761383,304.920563 
	C225.867569,310.599365 228.234756,317.380402 233.442474,321.194611 
	C240.768448,326.560181 246.377029,327.101501 251.995850,323.004333 
	C251.995850,323.004333 251.974365,323.022797 252.644409,322.841553 
M877.775696,478.919281 
	C879.538391,478.596130 881.240173,478.530487 882.831116,477.210907 
	C887.784546,473.102264 893.173523,469.624969 896.345032,463.583496 
	C898.943665,458.633270 901.352478,453.787811 902.007446,448.145966 
	C903.688293,433.667114 898.600159,419.822510 898.156067,405.549408 
	C898.120117,404.393372 897.925842,403.229187 897.683594,402.094757 
	C896.050110,394.445496 891.810059,390.826385 885.493225,393.727264 
	C878.492371,396.942291 871.561035,395.918762 864.540833,396.346680 
	C863.020813,396.439331 861.049072,395.791748 860.534424,398.144165 
	C861.154663,399.972137 862.573425,399.618500 863.870911,399.440399 
	C870.787170,398.491028 877.720825,397.643494 884.608337,396.515747 
	C893.289124,395.094360 893.463989,394.964966 894.715576,403.712128 
	C896.618591,417.012390 899.457214,430.210724 899.220032,443.764038 
	C899.040344,454.032166 895.532654,462.815582 888.526123,470.389038 
	C885.169617,474.017242 880.822998,476.100525 876.244690,479.111450 
	C873.325256,479.462891 870.551208,480.297638 867.706787,481.556030 
	C871.702698,483.338562 874.802368,482.720459 877.775696,478.919281 
M815.458374,265.345825 
	C807.612000,272.528137 799.943542,279.917969 791.871887,286.837616 
	C782.804077,294.611359 772.963867,300.314117 760.112793,297.003021 
	C752.383850,295.011688 746.085815,290.865662 740.816772,285.234192 
	C729.096680,272.707855 724.867432,255.420288 735.825378,240.792343 
	C737.523315,238.525742 739.110718,236.176315 740.749207,233.865204 
	C740.406982,233.577667 740.064819,233.290146 739.722595,233.002625 
	C738.252747,234.623795 736.614685,236.124481 735.348816,237.891754 
	C732.842346,241.390915 729.649963,244.523911 729.306580,249.244186 
	C729.111084,251.931534 730.245667,254.808075 726.855713,257.027740 
	C725.632874,257.828430 725.026611,262.161713 727.770874,263.998413 
	C729.203735,264.957397 729.348511,266.027161 729.299622,267.320465 
	C729.057312,273.727081 732.270569,278.562317 736.257751,283.105835 
	C742.479736,290.195984 749.413513,296.786469 758.580078,299.205719 
	C767.174072,301.473816 776.071045,299.975464 783.769592,295.135254 
	C785.905640,293.792297 788.319885,293.346466 790.486877,291.566101 
	C796.314453,286.778198 800.893372,280.799103 806.614990,275.911285 
	C810.110413,272.925201 815.109253,270.534912 816.822083,264.806335 
	C824.382935,263.715332 828.460693,256.474182 824.358887,250.768570 
	C821.848206,247.276291 819.091431,243.833145 815.616455,241.101547 
	C813.381104,239.344345 811.607117,238.746994 809.240479,241.199036 
	C804.093262,246.532043 798.651184,251.580719 793.321106,256.736847 
	C790.807312,259.168640 787.235229,260.774475 786.286865,265.181824 
	C781.956848,267.510590 777.536865,269.689758 773.999451,273.241547 
	C770.602661,276.652222 766.388977,278.215027 761.804199,276.840576 
	C756.317261,275.195709 752.507812,270.896332 750.877747,265.744446 
	C748.363647,257.798828 753.771545,252.034760 758.368713,246.580429 
	C759.829956,244.846771 763.375427,245.276199 764.906006,242.721329 
	C767.538696,238.326843 772.450256,236.339905 775.706482,232.500519 
	C779.292236,228.272659 783.495483,224.561691 787.498962,220.697266 
	C790.660400,217.645721 790.573486,214.039383 788.390381,210.899704 
	C786.354675,207.971970 783.388672,205.677948 780.764282,203.176102 
	C777.918396,200.462906 773.089539,200.592010 770.180359,203.306198 
	C766.513367,206.727310 763.409912,210.800262 759.687256,214.015274 
	C754.706909,218.316391 750.642639,223.333313 746.222656,228.119415 
	C756.882751,220.810226 765.042358,210.594025 776.556641,202.167282 
	C778.307556,204.365891 779.940674,206.677246 781.835571,208.749237 
	C788.674377,216.227356 788.771240,216.263443 781.401550,223.300598 
	C772.138184,232.145981 762.551392,240.662125 753.493103,249.709732 
	C746.276001,256.918365 746.149414,266.289612 752.440979,272.966095 
	C759.738647,280.710327 768.679626,281.337738 776.894592,274.601837 
	C780.497437,271.647614 784.080994,268.654663 787.577026,264.635437 
	C793.060364,259.550873 798.458862,254.370941 804.046448,249.403656 
	C812.822754,241.601654 811.142578,239.608276 819.987488,249.237015 
	C820.657715,249.966583 821.507446,250.528244 822.245178,251.199341 
	C824.938293,253.649033 825.437073,255.966980 822.281372,258.610352 
	C820.008118,260.514496 818.108032,262.864105 815.458374,265.345825 
M796.541748,357.598511 
	C801.312866,349.342896 805.308228,340.726013 809.573425,331.688354 
	C799.199036,330.515900 789.806946,329.436829 780.409058,328.410400 
	C778.916321,328.247345 777.290222,328.424377 776.346130,326.989258 
	C772.912170,321.769470 769.911926,316.329407 767.926514,310.582092 
	C769.520081,308.872375 771.099487,309.485901 772.496399,309.655792 
	C785.033081,311.180634 797.586426,312.606628 810.076233,314.457458 
	C814.545593,315.119751 817.131958,314.115723 819.064331,309.845337 
	C823.790283,299.401276 828.990234,289.172668 833.860046,278.791992 
	C834.840210,276.702576 836.084045,274.552094 836.111877,270.759094 
	C834.069092,273.769867 832.471008,275.592316 831.474792,277.699402 
	C829.070679,282.784668 827.593079,288.257446 824.422424,293.047729 
	C821.834595,296.957428 820.677002,301.631348 818.607971,305.868805 
	C816.135864,310.931732 813.533997,313.933350 808.710999,312.035614 
	C802.654114,309.652374 796.627380,310.672699 790.579224,310.307953 
	C786.388977,310.055237 782.309998,310.754608 778.285278,307.822113 
	C775.571289,305.844635 771.315613,305.814789 767.627014,306.461334 
	C764.242615,307.054535 763.484802,309.409088 765.370544,312.291107 
	C767.305847,315.248932 769.315918,318.232361 770.706787,321.457520 
	C774.407104,330.037781 776.786255,331.784088 785.953125,331.757172 
	C792.508484,331.737915 799.063965,331.753418 806.462219,331.753418 
	C804.690674,335.830322 803.277344,338.752869 802.137329,341.778412 
	C800.095520,347.197205 795.446960,351.643005 795.470032,357.906342 
	C791.395508,359.633514 793.504089,362.428925 794.511780,364.727325 
	C796.038879,368.210449 798.563965,371.218292 799.403687,375.059967 
	C799.715271,376.485718 800.710999,376.870972 802.484924,375.806061 
	C801.266418,371.941406 799.269897,368.349518 797.028076,364.959625 
	C795.509216,362.662872 794.970276,360.509644 796.541748,357.598511 
M533.960754,188.616669 
	C533.298645,191.014954 534.795959,191.644653 536.660889,191.653671 
	C545.652405,191.697128 554.645325,191.728882 563.635376,191.602173 
	C565.781799,191.571930 567.895874,190.903351 566.761047,187.889160 
	C567.591980,187.829529 568.460571,187.906326 569.247803,187.688644 
	C575.476196,185.966248 576.319031,182.559158 572.733826,177.708069 
	C571.055054,175.436554 569.101135,172.721817 568.719910,169.566574 
	C570.950073,168.194244 573.180969,168.621231 575.268433,168.737503 
	C580.006226,169.001389 581.660889,166.963470 581.785156,162.245911 
	C582.010864,153.675674 580.841980,145.912704 575.928284,138.372299 
	C570.126282,129.468857 561.705933,125.826492 552.182983,124.495438 
	C544.965515,123.486626 537.447754,123.431343 530.552612,127.317894 
	C523.968262,131.029221 517.618774,136.385559 515.093750,142.469849 
	C511.489258,151.155151 508.823639,161.027557 513.983276,171.195847 
	C517.210144,177.555099 525.013123,188.221588 533.960754,188.616669 
M492.785370,187.754959 
	C494.360626,187.252808 494.569763,185.992355 494.614594,184.581757 
	C494.895844,175.729172 494.369659,167.011368 497.357422,158.176346 
	C500.443939,149.049332 498.399780,139.050049 498.658661,129.434357 
	C498.707886,127.605461 498.050201,125.161530 498.976868,124.055138 
	C503.057953,119.182358 501.460938,113.554680 501.620026,108.214706 
	C501.819733,101.509613 499.577637,99.793777 493.117126,101.896194 
	C489.207245,103.168571 485.958588,106.351852 481.310394,105.506981 
	C480.024109,105.273178 479.173920,106.692749 479.394501,107.922012 
	C481.287476,118.470314 475.552643,128.215057 476.257202,138.653687 
	C476.570343,143.293365 476.354401,147.972641 476.278595,152.632309 
	C476.256470,153.991272 476.768158,155.756165 474.444702,156.294724 
	C469.431488,151.838623 467.565613,145.141174 463.465485,140.105759 
	C460.432312,136.380692 459.959167,131.467072 456.695953,128.101547 
	C453.663330,124.973862 451.787781,121.262146 450.632568,117.160423 
	C450.143982,115.425728 448.963989,114.694344 447.461761,114.404221 
	C440.645325,113.087761 434.436981,114.889565 428.713989,118.491180 
	C427.365082,119.340065 426.131836,120.753616 426.187988,122.601173 
	C426.434509,130.717026 423.267303,138.535233 424.233765,146.731689 
	C424.963501,152.920181 421.652344,158.654312 421.827667,164.828888 
	C421.838562,165.213211 420.963806,165.622681 420.468170,166.048782 
	C416.724182,164.034149 416.713043,159.912827 414.733704,157.254288 
	C409.699890,150.493317 405.429626,143.404678 401.712341,135.862289 
	C399.887512,132.159698 398.008850,127.683350 393.234283,126.982872 
	C389.338196,126.411270 385.280762,126.911156 381.295746,126.983063 
	C378.469696,127.034050 376.111267,128.159912 374.396484,130.416916 
	C371.966003,133.615875 372.898285,135.870056 377.101318,137.809799 
	C377.481781,140.169601 378.264343,142.376877 379.055939,144.610580 
	C380.486969,148.648651 383.498291,151.370361 385.287567,154.976868 
	C387.703003,159.845337 389.740509,165.048676 394.298248,168.500732 
	C395.278198,169.242950 395.973206,170.020615 396.198761,171.273361 
	C397.545502,178.753342 403.026581,184.161026 406.364594,190.630463 
	C408.924927,195.592697 412.844971,200.041718 415.395935,205.192993 
	C415.983002,206.378448 416.909760,207.553650 417.845490,207.336914 
	C424.521454,205.790558 431.235687,204.282654 437.726227,202.126022 
	C440.268921,201.281158 440.905121,198.390533 440.795929,195.429138 
	C440.600037,190.115997 439.320679,184.021500 441.419708,179.662170 
	C443.804260,174.709793 443.336639,170.136810 443.673737,165.332413 
	C443.947998,161.423294 443.227997,157.446564 444.103027,153.545029 
	C445.135803,153.702637 446.228516,153.611313 446.364288,153.929001 
	C448.275818,158.401382 451.132812,162.206818 454.212982,165.923065 
	C456.966431,169.245071 457.875000,173.598511 459.953522,177.356628 
	C462.211487,181.439194 465.733551,184.813751 466.831207,189.704468 
	C467.244202,191.544662 469.728058,193.617615 471.688141,194.222519 
	C473.768646,194.864594 477.158783,196.263290 478.864532,191.345657 
	C471.401489,193.801392 469.571533,188.556335 467.075867,184.151474 
	C464.617157,179.811890 462.107056,175.499588 459.530457,171.229050 
	C454.497742,162.887650 449.402924,154.583755 443.622864,145.097549 
	C442.085419,158.947220 440.561798,171.417557 439.345764,183.917801 
	C437.476074,203.137085 441.223328,199.016571 422.399963,203.688904 
	C419.125122,204.501785 417.391235,203.449081 415.852722,200.868820 
	C408.442047,188.440353 401.094879,175.971817 393.507568,163.651520 
	C388.027527,154.753021 383.465240,145.281235 376.876129,136.353745 
	C375.827332,132.427246 378.943481,131.649475 381.383057,131.222473 
	C385.853760,130.439987 390.105286,126.501457 394.965179,129.926147 
	C395.212708,130.100601 395.309784,130.487122 395.480011,130.773041 
	C400.919189,139.907303 406.328461,149.059570 411.808990,158.168961 
	C415.359589,164.070526 419.014435,169.909409 422.622528,175.776398 
	C425.088898,162.675095 426.837311,149.858551 427.533661,136.985092 
	C427.831146,131.485199 429.580750,126.984100 432.402313,122.694977 
	C436.668396,116.209976 446.023346,115.158302 449.340912,120.660141 
	C457.324188,133.899704 465.235931,147.182419 473.174561,160.448929 
	C473.914124,161.684814 474.288300,163.227554 475.859283,163.724289 
	C476.732300,163.361099 476.582825,162.616241 476.639679,161.988846 
	C478.094696,145.936264 479.523193,129.881256 481.003296,113.831017 
	C481.248199,111.174858 481.422546,108.074104 484.438629,107.167152 
	C489.271393,105.713882 494.153870,104.186142 499.794067,103.930763 
	C497.183868,132.249573 494.611908,160.153778 491.258820,188.213455 
	C488.041595,189.014679 484.824371,189.815903 481.607147,190.617126 
	C481.723846,191.020218 481.840546,191.423309 481.957245,191.826401 
	C485.243469,190.206100 490.342285,194.819855 492.785370,187.754959 
M821.903198,536.137817 
	C821.642944,534.495056 821.341553,532.857605 821.128784,531.208740 
	C818.907471,513.996155 825.021301,492.370422 848.170715,487.659790 
	C852.764221,486.725098 857.191223,486.696777 861.771301,487.892609 
	C861.222717,487.109070 860.627441,486.406952 859.932983,486.289001 
	C849.283447,484.480438 839.197449,485.895233 831.274658,493.684631 
	C827.046570,497.841553 821.140686,501.545166 822.087341,509.076813 
	C822.164490,509.690765 821.452698,510.690125 820.837585,511.054260 
	C818.420044,512.485291 818.273621,514.744446 818.283081,517.134949 
	C818.302795,522.132629 818.400818,527.132751 818.277100,532.127136 
	C818.208618,534.888367 819.106567,536.626587 822.126465,537.830688 
	C821.776245,540.733459 822.474731,543.394958 824.069214,545.548950 
	C823.050110,548.988770 819.506409,549.646240 817.999817,552.142639 
	C813.885315,558.960693 810.085938,565.793945 807.705200,573.617859 
	C804.360107,584.611145 804.347778,594.579041 811.402588,604.001282 
	C811.960205,604.745911 812.241699,605.539185 811.746460,606.267639 
	C811.059998,607.277344 809.957703,607.192688 809.112732,606.530945 
	C806.742676,604.674866 804.039185,604.354919 801.145691,604.265198 
	C797.998535,604.167786 796.286987,604.849060 796.071899,608.562500 
	C795.897522,611.574585 793.428345,614.007141 792.116638,616.762573 
	C790.371277,620.429077 790.797852,624.941650 794.603638,626.337463 
	C799.205750,628.025391 803.444702,630.547241 807.934143,632.173035 
	C810.753357,633.194031 812.325500,635.463928 814.891357,636.375916 
	C824.347595,639.736877 833.650757,643.427917 842.456177,648.314026 
	C846.244934,650.416321 852.758423,647.461060 853.615295,643.262634 
	C853.964661,641.551147 854.606873,640.346924 855.706726,638.998474 
	C858.510437,635.561218 858.163635,627.688293 855.077942,626.851807 
	C849.494080,625.338196 844.522705,622.500671 839.185303,620.576416 
	C833.209534,618.421997 827.637634,615.808899 822.361755,611.316711 
	C827.083313,611.413879 830.525818,608.715332 834.365295,607.136047 
	C841.920288,604.028625 843.799683,597.081665 847.471680,591.434082 
	C850.123596,587.355286 849.932434,581.165710 857.176514,581.090027 
	C853.749023,577.990967 852.196960,578.172607 849.709839,582.312134 
	C846.288574,588.006348 843.444031,594.050537 839.958679,599.701965 
	C836.249634,605.716064 830.842834,608.764343 823.514282,607.408936 
	C816.328369,606.080017 811.335510,602.271790 809.586243,594.936768 
	C806.311523,581.205322 810.338989,568.798767 817.568909,557.476746 
	C823.361206,548.406067 823.817444,548.783020 832.152527,555.592224 
	C834.720398,557.689941 835.456665,559.457520 832.822998,562.087036 
	C830.840759,564.066223 829.067566,566.317993 827.527588,569.503235 
	C825.855835,572.918640 823.983276,576.266602 823.400940,580.093506 
	C822.884949,583.484375 821.453186,587.862183 825.765381,589.163574 
	C829.908875,590.414124 830.678162,585.754944 832.266357,583.034180 
	C832.933289,581.891602 833.373718,580.618958 834.007019,579.454346 
	C838.154236,571.827576 841.346191,563.396240 851.125549,560.143311 
	C848.843323,558.929932 846.567627,558.756653 845.754150,559.661316 
	C841.639465,564.237305 836.653320,568.188232 834.335388,574.182678 
	C832.503418,578.920288 829.931763,583.049133 825.063477,586.214600 
	C824.594727,583.292480 823.845032,580.543152 825.131409,579.174683 
	C828.020142,576.101807 827.543762,572.502625 828.482178,569.215698 
	C829.302124,569.933594 830.314209,570.560181 830.804077,569.101990 
	C831.689819,566.464905 833.805786,564.759033 835.609131,563.007446 
	C838.295715,560.397949 838.073853,558.825195 835.664062,556.031677 
	C833.613464,553.654480 831.364441,551.582031 828.916077,549.419617 
	C831.177856,546.789551 834.114990,545.283752 836.878662,543.562622 
	C841.249207,540.840881 842.256348,536.354614 839.394104,532.139282 
	C836.950684,528.540771 837.502930,520.992737 839.141541,517.291870 
	C840.918274,513.278809 844.095520,510.828339 848.304138,507.665100 
	C844.733459,507.513153 843.171143,508.514587 841.692261,509.909332 
	C835.459961,515.786560 833.978638,526.640625 838.421814,534.856934 
	C839.398315,536.662598 840.737610,538.225403 838.258240,539.937195 
	C835.133057,542.094910 832.115723,544.409058 828.805176,546.836609 
	C825.480408,544.125427 824.169373,540.247986 821.903198,536.137817 
M760.993408,733.015930 
	C760.993408,733.015930 761.080139,733.140320 761.174194,733.924316 
	C759.578125,740.290161 754.453735,743.860901 749.963684,747.893494 
	C749.263672,748.522034 748.203308,747.860718 747.280090,747.265991 
	C741.956177,743.836243 737.630554,739.199768 733.261597,734.798157 
	C729.744385,731.254639 725.037109,728.690186 722.797424,724.006714 
	C720.461975,719.123230 714.958740,717.300171 710.674561,720.694580 
	C707.473694,723.230652 704.673157,726.289856 701.811951,729.230469 
	C699.931213,731.163330 699.930542,732.744385 701.993835,735.131165 
	C704.542725,738.079529 707.834595,740.473389 709.906311,743.534668 
	C713.706421,749.149902 718.072083,754.326843 722.661255,759.103638 
	C727.363037,763.997681 733.205322,768.649597 739.850281,770.245300 
	C755.085022,773.903564 771.539062,765.226196 774.343445,748.847961 
	C776.947144,747.984253 780.317383,749.979370 782.338135,747.482544 
	C784.846313,744.383606 788.144409,742.186096 790.767334,739.185181 
	C793.456970,736.107971 793.029907,733.884460 791.274841,730.853027 
	C789.198914,727.267212 785.741089,725.070557 783.111328,722.045959 
	C777.343811,715.412354 771.246216,709.066589 765.328491,702.562378 
	C763.359619,700.398315 760.002075,699.513062 759.011230,696.618774 
	C758.014221,693.706360 754.452576,691.816223 754.977173,687.487854 
	C760.803528,690.312256 764.109253,695.006653 769.303711,697.664185 
	C777.845459,702.034241 785.168030,708.755249 793.137390,714.294067 
	C795.804260,716.147583 798.850403,717.364136 801.611694,719.224609 
	C805.157043,721.613464 810.824280,718.673157 812.023254,710.067444 
	C812.023254,710.067444 812.285461,709.755798 812.994080,709.690613 
	C818.303894,708.015442 814.080627,703.182556 816.391113,700.122070 
	C824.934875,699.634460 826.809265,691.325073 831.070251,685.903687 
	C836.023621,679.601318 834.847473,671.573853 834.688721,664.035583 
	C834.507874,655.446045 821.905762,640.927002 813.250366,639.754211 
	C803.966064,638.496216 793.762451,637.096558 785.336182,642.940552 
	C776.929871,648.770630 770.814514,656.722351 769.399902,668.086914 
	C766.833008,665.494690 764.588684,663.280701 765.570984,660.441345 
	C768.657898,651.518494 774.157104,644.084595 782.822205,640.187500 
	C787.809875,637.944336 787.574097,633.928894 786.158569,631.352966 
	C784.570923,628.464233 783.831177,625.076965 781.366577,622.407715 
	C779.019531,619.865601 776.546021,619.709106 774.277649,620.663086 
	C764.525269,624.764526 757.924683,632.967712 751.829468,640.886353 
	C745.534851,649.064026 744.081421,659.409119 744.931702,669.935730 
	C745.299561,674.490234 746.396912,678.173828 750.083191,681.091675 
	C751.870239,682.506226 752.463318,684.793884 752.614563,687.515991 
	C747.526733,686.162781 744.698425,688.890442 742.242188,692.189697 
	C741.526917,693.150452 740.754761,693.785706 739.718018,694.407288 
	C732.947144,698.467468 734.244202,705.283508 739.822998,709.691223 
	C742.845337,712.079102 746.013794,714.684326 748.005066,717.883301 
	C751.210510,723.032959 756.437500,726.665710 758.607361,732.535828 
	C758.915344,733.368896 760.085999,733.000061 760.993408,733.015930 
M711.978333,754.542969 
	C724.272888,767.589539 724.630493,784.972534 712.052490,798.022278 
	C698.045776,812.554443 674.689453,815.096252 660.701782,794.176880 
	C657.626770,789.578064 657.924438,788.225769 662.497925,785.498962 
	C667.780457,782.349426 673.128235,779.309387 678.440857,776.210144 
	C684.672546,772.574890 691.221436,769.440308 697.083191,765.013489 
	C688.355591,756.205078 670.775391,763.106079 668.357971,773.708435 
	C667.079712,779.314758 663.565308,781.315857 659.538086,783.533264 
	C654.594666,786.255127 654.115356,789.240234 658.169983,793.089905 
	C658.615967,793.513367 659.095886,794.145813 659.137939,794.712524 
	C659.607300,801.046753 664.380859,803.388550 668.936951,806.513000 
	C671.682190,808.395569 674.963135,808.052368 677.405090,810.165527 
	C679.608582,812.072327 693.820496,813.305847 695.543091,811.295105 
	C698.572205,807.759460 703.091064,808.109802 706.698364,806.042786 
	C714.696533,801.459656 720.322388,794.281677 722.029785,786.408508 
	C723.619873,779.076233 725.052124,770.399841 720.008789,762.587219 
	C716.460083,757.089966 714.114319,751.220398 707.857239,747.594849 
	C705.311035,746.119507 702.190674,746.369202 700.502502,744.682983 
	C696.030640,740.216370 690.939636,741.914307 685.795349,741.655212 
	C681.988281,741.463501 680.987305,745.697571 677.580078,745.264648 
	C672.616455,744.634094 668.441772,747.489807 665.236633,750.130432 
	C659.470520,754.881104 651.944153,758.922852 651.994080,768.213867 
	C651.998108,768.963074 650.885498,769.718262 650.632874,770.038391 
	C652.739563,777.799377 658.354736,777.055115 665.018799,776.333679 
	C661.801636,775.170959 659.562683,774.060547 657.195374,773.572205 
	C652.929993,772.692200 652.840027,770.500793 654.302917,767.039612 
	C657.457703,759.575684 663.410156,754.838501 669.911926,750.707642 
	C684.389526,741.509460 700.101807,742.849365 711.978333,754.542969 
M258.634277,250.974243 
	C258.552887,236.082794 272.768555,221.994232 286.556915,218.426453 
	C295.123383,216.209854 303.521210,217.574081 311.019135,222.379364 
	C318.495361,227.170715 322.814667,234.438278 325.349365,242.885941 
	C325.829041,238.454147 325.116638,234.843872 322.711823,230.837112 
	C316.449921,220.403778 306.032196,217.737366 295.804688,214.370728 
	C291.625732,212.995132 288.572784,216.817688 284.941742,217.125580 
	C277.988373,217.715164 272.540405,220.959503 267.973267,225.617447 
	C262.736176,230.958679 259.831207,237.469666 257.254211,244.765137 
	C253.978851,254.037674 256.603088,261.284668 260.404572,268.648193 
	C263.217163,274.096222 267.439636,278.183929 273.235657,281.693512 
	C278.647491,284.970459 284.795441,283.749695 289.616364,287.239960 
	C290.072632,287.570282 291.265930,287.170227 291.974091,286.820160 
	C298.346161,283.670471 305.600403,283.741821 311.741150,278.556000 
	C320.029572,271.556458 326.799591,264.925415 325.482941,253.238525 
	C323.787598,260.269806 320.809509,266.607056 315.861969,272.020599 
	C305.970062,282.844238 291.445404,287.036713 279.286560,282.401123 
	C266.380707,277.480743 258.765076,266.210266 258.634277,250.974243 
M629.844116,142.066086 
	C632.712463,142.896378 635.580811,143.726669 638.905151,144.688965 
	C637.433655,141.009186 635.112488,140.258713 632.202576,140.323715 
	C628.375427,140.409241 624.543152,140.368973 620.715576,140.277969 
	C619.190979,140.241745 616.744202,138.977768 617.900879,138.013474 
	C621.886963,134.690384 619.998962,129.900299 621.778748,126.065704 
	C625.565674,117.906700 622.678406,112.768066 614.033997,111.342743 
	C612.489014,111.088005 611.375793,110.524216 610.144531,109.517845 
	C607.604736,107.441917 601.767334,108.109955 601.868103,110.268944 
	C602.108337,115.416199 598.350830,119.265900 598.314087,124.177490 
	C598.270264,130.030472 594.156860,134.587936 592.883972,140.235641 
	C592.206726,143.240341 592.056519,146.877838 590.334106,149.968002 
	C587.505493,155.042557 586.408936,160.922226 585.576477,166.525574 
	C584.822876,171.598572 580.894104,175.682343 581.697693,181.077545 
	C581.766602,181.540268 580.483582,182.116180 579.994324,182.764587 
	C576.997009,186.737137 578.324707,192.207611 582.043091,195.505737 
	C585.597473,198.658432 589.215881,197.454208 593.763123,197.559753 
	C589.957275,195.271530 586.601074,194.412094 583.191223,193.681702 
	C580.603210,193.127380 579.747620,191.928192 580.649719,189.055054 
	C587.523071,167.162933 594.068542,145.167175 601.036072,123.305656 
	C604.707886,111.784515 604.997498,111.876785 616.669556,114.843483 
	C617.153381,114.966461 617.632690,115.110207 618.120728,115.212631 
	C621.090088,115.835716 621.781616,117.530472 620.859436,120.353317 
	C619.258972,125.252022 617.671753,130.170135 616.447510,135.170349 
	C615.819885,137.733429 614.015503,140.203506 614.977051,143.435913 
	C619.696228,141.424026 624.321045,141.442520 629.844116,142.066086 
M205.449509,575.704407 
	C207.304611,575.426025 209.827621,576.346252 210.498932,572.476746 
	C201.374039,575.768066 192.521729,577.217346 183.832794,573.875183 
	C174.861938,570.424622 168.718460,563.786621 165.266342,554.752319 
	C162.398285,547.246582 161.741272,539.550476 163.527481,531.719604 
	C165.996780,520.893921 173.117096,513.894531 182.844849,508.875244 
	C180.455551,508.623108 178.295303,507.656067 176.181992,509.364197 
	C170.694122,513.799988 165.645157,518.574890 163.521942,525.591064 
	C163.001236,527.311768 163.533401,529.650574 162.550903,530.884827 
	C154.493484,541.006348 162.122742,550.140747 164.832474,559.096313 
	C166.585358,564.889526 170.513321,570.092224 177.431198,573.179077 
	C182.719711,575.538940 188.254135,576.473755 193.499115,578.561401 
	C197.475769,580.144226 201.027206,577.174866 205.449509,575.704407 
M652.783264,160.671234 
	C657.900696,174.856216 653.074951,191.753250 641.357727,200.014297 
	C634.524902,204.831665 626.843140,206.563232 618.592407,205.028931 
	C610.593140,203.541382 603.623596,200.124039 598.924805,192.776260 
	C598.001587,194.437546 597.014893,196.163834 597.713684,196.548615 
	C601.000000,198.358414 602.911133,201.846619 606.073853,203.516617 
	C612.807007,207.071915 620.053284,208.333344 627.781494,207.881424 
	C634.822754,207.469681 640.494995,204.213211 645.225769,199.821030 
	C648.451904,196.825806 651.674194,193.622421 653.542480,188.819885 
	C655.943848,182.646805 656.532349,176.407227 657.572083,170.137894 
	C658.008789,167.504700 655.075134,165.505600 655.637268,162.597961 
	C656.416016,158.570602 654.935486,155.688217 650.558838,154.188477 
	C651.283264,156.304535 651.914429,158.148026 652.783264,160.671234 
M303.410736,262.955719 
	C310.979034,253.025406 309.369293,243.807495 298.881653,237.020477 
	C289.225250,230.771378 277.077393,236.753357 276.094330,248.216599 
	C275.469391,255.503799 278.895874,260.738831 284.720795,264.437744 
	C290.861786,268.337341 297.025970,267.521729 303.410736,262.955719 
M606.370239,168.018524 
	C606.207458,168.662201 606.027527,169.302078 605.884644,169.950119 
	C603.993958,178.523560 607.463318,185.391357 615.013672,188.032028 
	C622.244995,190.561096 630.581848,187.405411 633.828125,180.910263 
	C638.130676,172.301971 636.259033,163.121140 629.313782,158.766586 
	C620.238037,153.076233 610.976624,156.530624 606.370239,168.018524 
M675.689880,234.983398 
	C680.750305,238.273453 686.320801,236.157242 691.661194,236.431290 
	C692.168091,236.457291 692.762512,235.775818 693.234070,235.334885 
	C697.964539,230.911942 696.418091,225.127518 696.743774,219.688126 
	C696.937195,216.457535 695.483093,215.100571 692.994507,213.238968 
	C688.606018,209.956131 681.239258,209.124481 676.918640,212.327148 
	C669.754089,217.638016 669.137634,228.785355 675.689880,234.983398 
M703.097046,776.005188 
	C696.000916,777.598328 690.589417,782.504578 684.294861,785.676758 
	C682.401428,786.630981 679.796814,787.132263 679.020996,789.691345 
	C683.643921,794.810547 690.365723,795.791260 696.673218,792.348572 
	C702.928528,788.934448 705.431274,783.160156 703.097046,776.005188 
M880.317932,429.277802 
	C885.728210,439.920593 879.151978,447.796539 873.845825,456.113831 
	C878.520203,454.853088 888.529358,440.105743 888.615540,434.222198 
	C884.354187,435.649200 883.577209,432.890625 883.145203,429.652008 
	C882.860352,427.515686 882.448120,425.393616 882.023987,423.278992 
	C880.539612,415.880249 880.528198,415.882538 872.517334,418.354187 
	C878.337158,417.631927 879.979126,420.567902 879.498108,425.550537 
	C879.408752,426.475647 879.971741,427.463745 880.317932,429.277802 
M210.264496,359.350464 
	C210.153107,356.614807 208.067780,357.277557 206.605591,357.453857 
	C204.112518,357.754395 201.815094,358.856476 199.837540,360.371460 
	C195.018600,364.063141 193.601456,369.195770 194.385223,374.949646 
	C194.912231,378.818512 196.610382,382.081360 201.283127,383.825439 
	C204.280502,375.739014 207.190216,367.889069 210.264496,359.350464 
M867.826172,606.802185 
	C870.600830,605.317261 869.024780,602.788391 869.318298,600.661072 
	C867.841797,602.834900 866.817261,605.211670 865.503845,607.416321 
	C859.921021,616.787598 858.447510,616.909607 850.617310,609.549011 
	C848.225342,607.300415 847.818970,605.649414 850.042908,602.903809 
	C854.022583,597.990417 857.017334,592.475098 857.947327,585.617554 
	C856.398987,586.969604 853.914917,586.995361 854.385742,589.381897 
	C855.316162,594.099060 851.874329,597.277222 849.668518,600.207764 
	C847.276611,603.385376 846.392395,606.312866 848.183228,609.078003 
	C850.752686,613.045288 854.176147,617.457947 859.601624,616.439758 
	C863.989807,615.616211 865.611938,611.061157 867.826172,606.802185 
M871.446533,572.421692 
	C874.846130,580.570129 872.000366,588.752441 871.552795,597.053833 
	C872.269348,592.445129 874.038147,588.383301 876.216858,584.448792 
	C877.090027,582.872009 876.637817,581.139404 875.822510,579.662354 
	C873.607117,575.649109 872.249756,571.236084 870.427979,567.075500 
	C867.126587,559.535400 861.467346,559.234497 854.868652,559.712769 
	C862.234924,561.126831 868.108459,564.512207 871.446533,572.421692 
M206.212814,533.681946 
	C209.183762,538.299500 207.934875,543.284607 207.137238,548.075562 
	C206.433578,552.302063 201.391541,551.683655 198.530487,554.302307 
	C202.773758,556.708923 204.737305,553.473022 206.774277,551.591003 
	C210.908188,547.771545 211.993561,541.029785 209.749023,535.874573 
	C207.120087,529.836487 202.047012,527.012390 194.278030,527.444641 
	C199.161179,527.247620 202.381241,530.215759 206.212814,533.681946 
M858.753052,535.145447 
	C860.917419,535.039307 863.084534,534.938599 864.101929,532.498657 
	C857.437683,528.556580 862.418091,521.655884 859.661011,516.630432 
	C859.421448,522.741638 856.972778,528.615784 858.753052,535.145447 
M846.185852,286.501373 
	C850.679626,291.078308 844.899353,294.919434 845.550842,299.447144 
	C847.573181,296.654694 850.273743,293.602722 850.229126,290.591339 
	C850.183289,287.489777 847.462524,284.427795 845.664246,280.856079 
	C843.855347,283.495087 845.300354,284.600891 846.185852,286.501373 
M180.001770,535.847839 
	C176.004807,543.608276 179.509109,552.867920 187.405106,553.838867 
	C181.397278,551.544373 182.502655,544.953613 178.660553,541.258179 
	C180.350784,539.492676 183.099075,538.247925 180.001770,535.847839 
M853.916199,400.688873 
	C854.712402,400.368256 855.935059,401.220978 856.403015,399.819061 
	C847.000916,398.550140 842.549194,398.998962 838.477783,401.834930 
	C843.778320,403.939545 848.397400,401.058411 853.916199,400.688873 
M245.181488,369.418701 
	C245.673080,373.663422 243.060181,377.718719 243.804047,383.274994 
	C246.027435,378.676270 246.651443,358.348602 245.123978,355.264526 
	C244.745773,354.500916 243.848816,354.242065 242.771286,355.179901 
	C243.669037,359.490173 245.826050,363.773346 245.181488,369.418701 
M862.244568,421.626099 
	C864.570129,421.247589 867.537170,422.761230 869.517090,418.765076 
	C863.362549,418.445435 858.231750,420.329895 852.992798,421.610931 
	C855.780396,421.610931 858.567932,421.610931 862.244568,421.626099 
M215.223724,455.868225 
	C210.791031,456.946716 206.358322,458.025208 200.774094,459.383881 
	C208.578888,459.996948 214.662827,458.128174 221.424957,456.337067 
	C219.143066,454.500641 217.545914,455.386414 215.223724,455.868225 
M198.083023,505.728821 
	C188.126343,504.741577 186.962143,504.937592 185.410278,508.586304 
	C191.179901,507.486328 196.576950,506.449310 202.298340,507.356293 
	C201.473724,505.027405 199.912949,506.085480 198.083023,505.728821 
M227.012238,543.371155 
	C227.306900,545.176880 225.460831,547.121948 227.291428,548.885925 
	C230.784134,545.969788 230.610352,540.172546 227.053131,538.268066 
	C227.053131,539.720581 227.053131,541.173096 227.012238,543.371155 
M864.535706,511.753296 
	C866.326416,512.013306 866.293884,513.399841 866.391968,514.725891 
	C866.513367,516.368042 867.110474,517.443359 869.333252,517.068298 
	C867.850769,512.943665 866.168213,509.166962 861.720337,508.653564 
	C859.690125,508.419189 859.909607,510.760773 860.465515,512.395142 
	C861.681763,512.130066 862.779907,511.890686 864.535706,511.753296 
M848.744568,422.097260 
	C844.359192,421.951477 840.105774,422.557495 836.059143,424.413666 
	C840.229797,423.371246 844.976624,426.692963 848.744568,422.097260 
M419.565918,832.138428 
	C421.910736,835.115356 423.522827,834.597473 426.176270,829.795044 
	C423.462036,828.543579 421.148743,828.164917 419.565918,832.138428 
M223.534180,526.005127 
	C224.347458,528.405029 225.160721,530.804932 225.973999,533.204834 
	C226.534119,531.288086 226.629166,529.487427 226.506790,527.701782 
	C226.389496,525.990051 226.007370,524.344116 223.534180,526.005127 
M874.334290,495.352173 
	C875.678772,496.060181 876.452026,497.753235 878.449890,498.002136 
	C876.345093,493.622040 876.088623,493.434814 871.807739,493.200073 
	C872.658752,493.937927 873.260010,494.459290 874.334290,495.352173 
M183.145142,532.893188 
	C185.548676,531.382507 187.952225,529.871887 190.355759,528.361206 
	C187.180786,528.744568 183.959320,529.002686 183.145142,532.893188 
z"/>
<path fill="#000000" opacity="1.000000" stroke="none" 
	d="
M425.192230,777.142090 
	C426.804840,781.527649 430.096832,784.864258 431.196655,789.307922 
	C435.130432,805.201050 428.118958,819.615540 412.249878,827.789551 
	C411.986237,828.006104 411.999695,827.999451 411.598328,828.070679 
	C404.309692,829.792908 397.482452,830.036499 390.511261,828.238708 
	C372.077972,823.484924 361.714600,802.034302 369.718964,785.175354 
	C371.295990,781.853760 373.053131,781.217163 376.339905,782.651978 
	C382.426880,785.309265 388.636536,787.689148 394.820831,790.119019 
	C401.203125,792.626648 407.616028,795.056458 414.642090,797.761536 
	C414.516418,795.584717 414.618835,794.424255 414.360931,793.350220 
	C412.038544,783.678772 401.740997,777.541748 390.469086,779.557373 
	C387.026031,780.173035 385.696381,779.149292 384.551086,776.205627 
	C380.880463,766.771423 381.661743,765.298096 391.687317,763.930481 
	C394.164612,763.592529 396.600647,763.724243 399.107635,764.190002 
	C408.835571,765.997131 417.195129,770.480896 424.722656,776.723022 
	C424.722656,776.723022 425.034180,777.004150 425.192230,777.142090 
M403.304779,805.209778 
	C396.914673,802.566040 390.574158,799.779419 383.841797,797.866882 
	C382.185120,806.741821 385.772156,811.776855 395.539001,814.981201 
	C401.012817,816.777039 407.206451,813.885132 409.833649,808.100708 
	C407.896118,807.229858 405.948029,806.354187 403.304779,805.209778 
M379.505615,808.772034 
	C379.007080,807.543579 378.384399,806.349487 378.032623,805.080322 
	C376.848236,800.806885 375.175323,796.623657 377.794403,792.124573 
	C378.592224,790.754028 378.471588,788.108765 375.914825,787.846313 
	C373.806183,787.629883 373.436798,789.624878 373.147003,791.320984 
	C372.755005,793.615051 372.397186,795.917847 371.907867,798.191772 
	C370.711517,803.751465 373.786041,809.625183 379.650543,812.501648 
	C379.650543,811.409973 379.650543,810.438049 379.505615,808.772034 
z"/>
<path fill="#000000" opacity="1.000000" stroke="none" 
	d="
M485.960022,849.900635 
	C482.305878,849.639832 480.226227,847.522522 478.342529,845.140930 
	C472.416107,849.594543 462.004395,846.793213 459.717041,840.068665 
	C459.300323,838.843567 458.477173,838.144470 457.741608,837.295349 
	C453.191162,832.042358 452.182312,827.058411 456.262512,820.502869 
	C459.206604,815.772705 461.796112,811.221191 466.356079,807.799561 
	C468.281403,806.354919 470.061676,805.800354 472.237732,805.787109 
	C476.897583,805.758728 481.565277,805.930908 486.215942,805.718384 
	C495.135529,805.310852 497.008209,810.845947 494.432373,817.739075 
	C492.732147,822.289062 492.201843,826.701172 492.217651,831.337280 
	C492.237885,837.268494 488.199799,842.309631 488.626221,848.344177 
	C488.699493,849.380554 487.383179,849.765625 485.960022,849.900635 
M466.229523,836.546814 
	C464.396027,836.276428 463.231140,836.969482 463.506989,838.914795 
	C463.725464,840.455383 464.877228,841.494934 466.282379,842.135559 
	C467.152740,842.532349 467.995087,842.200073 468.399475,841.431702 
	C469.457184,839.422058 468.428345,838.008057 466.229523,836.546814 
z"/>
<path fill="#000000" opacity="1.000000" stroke="none" 
	d="
M516.993408,835.990051 
	C516.408875,837.491577 515.975281,838.682373 515.541687,839.873108 
	C515.127075,839.811768 514.712463,839.750427 514.297852,839.689087 
	C518.330505,829.933411 519.182312,819.833923 517.700989,809.641663 
	C520.521790,809.302734 520.543091,810.893738 521.134094,811.998474 
	C523.179260,815.821106 525.978943,818.430908 530.657593,816.650818 
	C533.944763,815.400208 536.716003,816.908264 539.150024,818.339722 
	C543.280762,820.769043 547.308105,823.565430 550.806824,826.822205 
	C554.052246,829.843384 552.467346,833.718689 550.475586,836.788879 
	C547.611511,841.203735 542.262634,842.739441 537.286438,840.928345 
	C532.914551,839.337158 528.764526,837.345886 525.107727,834.306396 
	C522.180725,831.873352 519.096497,831.177490 516.993408,835.990051 
z"/>
<path fill="#000000" opacity="1.000000" stroke="none" 
	d="
M643.438232,776.562378 
	C648.719788,791.325806 653.869812,805.726196 658.974731,820.142517 
	C660.012329,823.072632 659.018188,825.191345 656.221252,826.639893 
	C650.712585,829.492798 646.408813,829.239563 643.360779,825.550598 
	C645.185425,824.171692 647.230591,825.190002 649.090515,824.964417 
	C654.708496,824.283020 656.408569,821.072205 653.726868,816.138123 
	C652.697266,814.243652 651.988525,812.164124 650.865784,810.333069 
	C647.931580,805.547363 643.932434,805.105408 639.967529,809.069580 
	C638.876343,810.160645 637.871338,811.208252 635.642212,810.885681 
	C633.336670,799.698242 628.581665,789.139709 625.005615,778.179626 
	C624.543945,776.764587 624.685974,775.598938 625.938538,774.634094 
	C627.251221,773.622925 628.430054,772.424744 629.796753,771.499390 
	C637.489807,766.290527 640.373657,767.314087 643.438232,776.562378 
M639.834839,788.050720 
	C640.459534,784.196228 638.964539,780.546082 638.687256,776.769714 
	C638.509888,774.354370 636.651550,772.947815 634.131287,773.281616 
	C632.012756,773.562317 629.844910,774.062500 629.244080,776.705383 
	C628.444397,780.223511 634.030212,792.183594 637.475403,794.169373 
	C639.300842,792.866760 639.076355,790.682373 639.834839,788.050720 
z"/>
<path fill="#000000" opacity="1.000000" stroke="none" 
	d="
M196.864807,337.749023 
	C202.285782,332.268524 204.406769,326.985718 202.648743,318.832336 
	C200.082870,306.932220 203.174866,295.396271 213.008072,286.979187 
	C216.121597,284.314056 216.373901,282.008331 213.792313,278.856140 
	C219.440506,276.174469 221.468277,280.877563 225.068176,282.782959 
	C210.157135,292.355530 197.334473,309.920410 217.432144,337.769714 
	C209.825073,339.305725 201.513351,336.004517 194.740265,341.609222 
	C195.383209,340.413086 196.026138,339.216949 196.864807,337.749023 
z"/>
<path fill="#000000" opacity="1.000000" stroke="none" 
	d="
M132.185547,341.171753 
	C135.494049,339.328552 138.066818,335.587921 142.125977,338.877319 
	C145.258316,341.415649 145.741058,346.323608 143.852982,351.265625 
	C141.821518,356.582916 137.391556,359.572510 133.177872,362.674377 
	C130.235992,364.840027 126.928246,362.958893 125.256126,358.708099 
	C123.165421,353.393188 125.941505,346.143707 132.185547,341.171753 
z"/>
<path fill="#000000" opacity="1.000000" stroke="none" 
	d="
M168.556946,444.674988 
	C169.003601,442.818604 170.493820,442.502533 171.945190,442.154572 
	C183.082596,439.484528 183.404404,438.715302 177.204865,429.052185 
	C181.746552,425.747772 182.822296,432.398041 186.698807,432.432587 
	C189.408600,432.456787 192.081909,436.566559 195.457642,439.434418 
	C188.691803,440.533783 183.621567,445.216553 176.823746,444.262360 
	C174.813416,443.980194 173.020844,444.422028 171.434479,446.090881 
	C170.070541,447.525635 168.933929,446.745636 168.556946,444.674988 
z"/>
<path fill="#000000" opacity="1.000000" stroke="none" 
	d="
M205.118469,606.842346 
	C208.202347,607.120728 211.185867,605.877014 213.438354,608.446045 
	C208.985657,614.967346 202.921082,619.522400 196.420563,625.245544 
	C196.002853,618.755005 202.988831,613.982483 198.499268,608.420166 
	C200.660934,606.382019 202.761887,607.097046 205.118469,606.842346 
z"/>
<path fill="#000000" opacity="1.000000" stroke="none" 
	d="
M514.000488,827.801453 
	C513.605225,830.107117 513.713623,832.232666 511.609741,833.374390 
	C509.076172,832.883972 509.192261,830.869507 509.261810,829.119080 
	C509.576599,821.192200 511.530304,813.413635 511.358643,805.420715 
	C511.317627,803.512146 512.119690,801.421875 514.228088,800.549988 
	C515.314819,800.100647 516.259766,800.821289 516.588501,801.810425 
	C517.432922,804.351440 518.029968,807.399109 516.282227,809.347778 
	C513.567505,812.374512 512.809631,815.355469 514.159912,819.017151 
	C515.201416,821.841309 513.818420,824.595215 514.000488,827.801453 
z"/>
<path fill="#000000" opacity="1.000000" stroke="none" 
	d="
M180.656433,604.934448 
	C183.915115,605.168213 186.900436,604.327576 189.854446,605.665894 
	C187.643448,608.002747 180.978928,609.139709 179.009384,607.484558 
	C176.633957,605.488403 178.666443,605.232178 180.656433,604.934448 
z"/>
<path fill="#000000" opacity="1.000000" stroke="none" 
	d="
M621.775146,828.118652 
	C619.975342,822.798157 620.799255,821.856018 627.680664,821.820923 
	C624.900513,823.712463 624.875854,827.116943 621.775146,828.118652 
z"/>
<path fill="#000000" opacity="1.000000" stroke="none" 
	d="
M177.013214,359.016907 
	C178.069092,353.976349 178.241272,353.756897 182.294113,352.549347 
	C182.636322,356.166809 182.382782,359.119965 177.293091,358.919617 
	C176.970734,358.977325 176.999771,359.002930 177.013214,359.016907 
z"/>
<path fill="#000000" opacity="1.000000" stroke="none" 
	d="
M316.119507,750.686157 
	C313.152374,753.173950 310.295074,755.338684 307.218872,757.751709 
	C297.603790,761.919800 288.188782,762.174011 278.370392,758.080566 
	C273.532745,753.869629 268.325745,750.726624 264.627106,745.524475 
	C256.752167,734.448486 257.858612,714.954956 268.927277,705.390503 
	C271.451019,703.209717 273.253479,702.938110 275.690826,705.305542 
	C284.148773,713.520874 292.704163,721.635986 301.241180,729.769653 
	C302.532257,730.999695 303.568207,732.598022 305.688690,733.190918 
	C308.721191,728.495850 307.879547,723.841675 305.456329,719.548706 
	C301.962555,713.359009 297.004333,708.850586 289.415131,708.387695 
	C286.888977,708.233643 285.935120,706.800232 285.838654,704.496948 
	C285.831696,704.330750 285.835144,704.164001 285.823975,703.998169 
	C285.067932,692.775391 287.702606,690.823792 298.338409,694.728882 
	C313.683777,700.363281 324.672119,715.931702 324.293488,731.465027 
	C324.113647,738.843445 320.581268,744.773987 316.119507,750.686157 
M275.908234,723.977112 
	C272.846161,732.047424 274.669861,737.600037 282.088409,742.794312 
	C286.746399,746.055603 292.775635,745.725891 296.747040,742.179871 
	C290.787262,736.012207 284.822540,729.823486 278.831757,723.660095 
	C278.100647,722.907959 277.216492,722.453430 275.908234,723.977112 
z"/>
<path fill="#000000" opacity="1.000000" stroke="none" 
	d="
M325.694641,742.860474 
	C331.472656,736.217163 341.306396,733.888306 350.189789,737.084778 
	C361.714447,741.231628 370.391541,749.098633 377.667755,758.702087 
	C379.571106,761.214172 379.244019,762.911865 376.426331,764.745178 
	C368.144135,770.133667 368.214508,770.256470 362.143555,762.633545 
	C358.231598,757.721680 353.341187,754.044434 347.696320,751.398926 
	C345.364532,750.306030 342.753448,749.672424 340.960785,752.327576 
	C339.290314,754.801819 340.872620,756.895752 342.514496,758.533997 
	C346.749817,762.759827 351.348267,766.630066 355.477051,770.952393 
	C361.830566,777.603516 362.879395,784.522095 359.019379,791.395264 
	C354.910461,798.711731 347.134186,802.041260 338.616394,800.328735 
	C326.189453,797.830322 317.100311,790.376648 309.313141,780.914062 
	C307.126648,778.257141 307.623169,776.055786 310.414764,774.245300 
	C311.672089,773.429749 313.016541,772.741394 314.233734,771.872437 
	C317.414612,769.601929 319.672546,769.828064 321.870056,773.511963 
	C325.317322,779.291077 330.718201,782.812988 337.059235,784.989258 
	C339.367157,785.781433 341.294220,785.773865 342.793182,783.629028 
	C344.384491,781.352112 343.278259,779.344727 341.744751,777.789551 
	C337.889343,773.879822 333.694824,770.301819 329.881226,766.354248 
	C321.712677,757.898926 320.605865,751.632935 325.694641,742.860474 
z"/>
<path fill="#000000" opacity="1.000000" stroke="none" 
	d="
M381.612915,776.068848 
	C382.965851,777.271851 383.507965,778.394836 382.776978,780.299133 
	C380.347595,780.299133 377.725281,780.459961 375.130005,780.263550 
	C370.637665,779.923462 366.672577,780.153442 366.072815,786.550354 
	C364.188904,772.701477 353.563171,765.375854 345.008911,756.590149 
	C349.278717,753.690308 351.202271,753.983582 355.219666,759.086609 
	C357.422485,761.884705 360.047638,764.270264 362.256531,767.081787 
	C365.639526,771.387817 368.094666,772.552490 374.529388,768.837891 
	C377.851288,766.920288 379.712250,767.787476 380.225311,771.641174 
	C380.417877,773.087585 380.002228,774.689758 381.612915,776.068848 
z"/>
<path fill="#000000" opacity="1.000000" stroke="none" 
	d="
M408.934570,792.696289 
	C403.205017,789.682556 397.338257,788.220032 391.435394,786.749939 
	C389.523743,786.273804 389.045746,783.846008 387.914764,781.705383 
	C391.967560,780.459595 395.491791,780.381958 399.326996,782.174438 
	C403.498474,784.124084 407.481445,786.051758 410.676636,789.551086 
	C413.143951,792.253296 412.298584,792.837891 408.934570,792.696289 
z"/>
<path fill="#000000" opacity="1.000000" stroke="none" 
	d="
M290.201965,715.909546 
	C287.946808,714.632629 286.697937,712.985107 285.924225,710.922363 
	C292.677216,708.014771 305.559601,719.437012 305.605011,728.644836 
	C300.963318,726.551636 297.961426,722.810486 294.744019,719.397339 
	C293.472687,718.048706 292.252502,716.778931 290.201965,715.909546 
z"/>
<path fill="#000000" opacity="1.000000" stroke="none" 
	d="
M811.901001,710.230347 
	C804.782227,718.629150 804.794495,718.611023 795.576904,712.363342 
	C784.277100,704.704346 772.920044,697.129517 761.654541,689.420715 
	C755.340515,685.100159 750.216553,679.681641 747.833557,672.221008 
	C746.831604,669.084290 745.846375,665.442871 751.635803,666.601196 
	C752.895508,666.853210 754.412598,666.260925 754.293457,665.009949 
	C753.960632,661.514526 755.004456,657.857849 753.721924,654.673523 
	C751.268372,653.944824 751.165100,656.446533 749.504395,656.863037 
	C747.790100,653.124329 750.886597,650.563965 751.968872,648.027344 
	C756.469177,637.479675 764.521790,629.968750 774.501404,624.405884 
	C777.506775,622.730652 779.186646,623.092163 780.711975,626.350281 
	C782.044006,629.195435 783.714661,631.868958 784.545776,635.243042 
	C781.388733,637.286621 778.035095,639.092834 775.108032,641.432678 
	C769.970764,645.539429 765.740051,650.462341 763.952454,657.001099 
	C761.999023,664.146484 764.841797,669.792053 771.877625,673.070068 
	C773.251099,655.874695 784.413635,642.252930 798.376099,640.733643 
	C813.255798,639.114502 827.056580,648.244568 831.622437,661.514526 
	C836.068054,674.435120 829.010498,693.992859 810.912781,700.791565 
	C814.974670,703.093750 815.245483,705.949707 812.327759,709.453247 
	C812.285461,709.755798 812.023254,710.067444 811.901001,710.230347 
M786.450317,669.196838 
	C786.213318,669.991577 785.938293,670.777161 785.745422,671.582520 
	C784.059204,678.622620 786.202026,684.300537 791.746094,687.526672 
	C798.122192,691.237000 804.953125,690.421570 809.972717,685.350891 
	C815.928223,679.334900 817.357422,672.956604 813.954529,666.966614 
	C808.226318,656.883240 794.556335,654.395874 786.450317,669.196838 
z"/>
<path fill="#000000" opacity="1.000000" stroke="none" 
	d="
M760.946533,732.956299 
	C760.595276,726.113647 754.874268,722.846497 751.227722,718.295227 
	C748.330139,714.678772 744.759827,711.607727 741.572021,708.215759 
	C737.230896,703.596680 737.273743,701.150330 741.601807,696.792297 
	C749.000671,689.342163 749.159546,689.191895 756.378174,696.823975 
	C767.347534,708.421753 778.041870,720.279297 788.924927,731.959412 
	C790.917542,734.098022 791.272034,735.799927 788.763977,737.729126 
	C786.922852,739.145203 785.208008,740.731445 783.489807,742.299866 
	C780.787720,744.766296 778.155334,747.458130 774.552917,742.620728 
	C772.456238,752.555481 767.679810,759.691162 759.821106,764.666443 
	C749.976624,770.898987 737.819092,769.627258 729.729553,761.158630 
	C722.146118,753.219788 714.927856,744.933289 707.424866,736.915894 
	C704.202576,733.472717 704.589233,730.700195 707.929504,727.591675 
	C716.278687,719.821655 716.213440,719.754700 723.895691,727.982666 
	C729.003662,733.453430 734.032471,739.001404 739.251587,744.364197 
	C744.529358,749.787292 749.339355,750.823914 754.373596,747.969543 
	C759.814636,744.884460 762.687439,739.090454 761.309998,733.328308 
	C761.080139,733.140320 760.993408,733.015930 760.946533,732.956299 
z"/>
<path fill="#000000" opacity="1.000000" stroke="none" 
	d="
M827.167847,617.795288 
	C836.109924,621.893677 844.688904,625.876099 853.311157,629.762451 
	C855.683105,630.831543 856.082947,632.222595 854.921448,634.489746 
	C853.334778,637.586792 851.602783,640.681824 850.585388,643.978943 
	C849.420898,647.752686 847.483704,647.520081 844.609131,646.200317 
	C828.480347,638.795410 812.336182,631.423279 796.150635,624.143555 
	C793.423584,622.917053 793.005798,621.404663 793.946960,618.669250 
	C798.262451,606.127625 799.318787,605.575562 811.349670,610.768555 
	C816.530640,613.004822 821.665344,615.348328 827.167847,617.795288 
z"/>
<path fill="#000000" opacity="1.000000" stroke="none" 
	d="
M688.812988,767.155090 
	C683.806274,770.263489 678.419922,772.156067 674.613708,776.492493 
	C673.513245,777.746155 671.910583,777.422913 670.443176,776.974915 
	C672.145935,768.459045 679.325745,763.004089 688.165466,764.738525 
	C689.663452,765.032410 691.011658,765.335754 688.812988,767.155090 
z"/>
<path fill="#000000" opacity="1.000000" stroke="none" 
	d="
M566.233521,187.774704 
	C555.615662,191.600403 545.205261,191.500412 534.387573,188.077209 
	C527.220642,184.083282 520.847473,180.049774 517.249512,172.372589 
	C507.828735,152.271072 520.894592,128.846832 542.990173,126.890869 
	C557.972961,125.564552 570.493530,131.936584 576.368408,143.890274 
	C579.020142,149.285782 579.429810,155.054733 579.188049,160.935089 
	C579.024536,164.912430 577.317871,166.283615 573.104553,165.866409 
	C561.358765,164.703247 549.565430,164.015335 537.787231,163.191711 
	C536.362000,163.092056 534.630920,162.583649 533.731079,164.252258 
	C532.852112,165.882217 534.154663,167.068237 534.955566,168.286774 
	C539.535889,175.255524 550.481628,177.888718 558.669373,174.204865 
	C560.774292,173.257812 562.963196,170.349579 565.295898,172.353546 
	C568.144165,174.800415 571.262390,177.744186 572.086121,181.393219 
	C572.875061,184.887894 568.488892,185.548782 566.233521,187.774704 
M553.266296,152.877594 
	C555.961182,152.521042 558.722473,154.199463 561.400024,152.859497 
	C560.756653,145.910904 554.830322,140.751022 547.461853,140.497253 
	C541.009521,140.275040 535.241394,144.902405 534.108032,151.355911 
	C540.067383,153.217255 546.239502,152.589920 553.266296,152.877594 
z"/>
<path fill="#000000" opacity="1.000000" stroke="none" 
	d="
M544.318665,165.739441 
	C551.280579,166.038284 558.061523,164.435425 563.769409,168.261932 
	C558.543213,173.473495 551.799683,172.053589 545.334229,172.375793 
	C541.318909,172.575897 539.633179,170.857010 539.231567,167.290451 
	C540.482544,165.489502 542.265137,165.916275 544.318665,165.739441 
z"/>
<path fill="#000000" opacity="1.000000" stroke="none" 
	d="
M306.248779,251.207550 
	C306.285522,256.334442 303.567017,259.548737 299.934814,261.770691 
	C297.731995,263.118256 296.287384,265.584076 292.847931,265.458191 
	C287.567688,265.265015 285.733551,260.772827 282.297791,258.356842 
	C278.569366,255.735077 276.219055,251.801590 277.953308,247.315842 
	C279.924835,242.216217 282.688080,237.364639 289.294159,236.781097 
	C293.992584,236.366074 300.693481,239.724197 303.177216,244.672989 
	C304.194733,246.700394 306.275208,248.237732 306.248779,251.207550 
z"/>
<path fill="#000000" opacity="1.000000" stroke="none" 
	d="
M252.006470,322.995850 
	C249.383484,322.767181 246.724121,322.197571 244.120911,322.389435 
	C234.703568,323.083679 227.605515,315.697937 229.721558,305.237732 
	C230.366974,302.047119 236.512939,297.297302 239.609436,296.625946 
	C249.513885,294.478577 253.382690,302.134888 257.622498,308.077362 
	C260.362732,311.918060 256.121643,315.713165 253.919312,319.001038 
	C253.197540,320.078583 252.375076,320.991333 252.048386,322.658295 
	C251.974365,323.022797 251.995850,323.004333 252.006470,322.995850 
z"/>
<path fill="#000000" opacity="1.000000" stroke="none" 
	d="
M606.811890,171.554535 
	C607.966003,168.728714 609.678711,166.682770 610.999084,164.394104 
	C613.909119,159.350113 619.107788,159.639771 624.172546,159.660172 
	C628.443054,159.677383 631.147888,162.582642 632.900391,165.314865 
	C636.079285,170.270889 631.963684,182.173340 626.570435,184.821609 
	C623.976440,186.095337 621.723206,190.254227 617.789551,186.292374 
	C615.580261,184.067215 611.807434,184.632629 609.766724,180.640701 
	C608.280396,177.733215 606.378662,175.398071 606.811890,171.554535 
z"/>
<path fill="#000000" opacity="1.000000" stroke="none" 
	d="
M692.492493,215.528656 
	C697.343506,221.715240 697.178345,227.877747 692.336609,232.280426 
	C687.629333,236.560822 681.207458,236.223495 676.163147,231.430817 
	C672.303589,227.763779 671.873291,222.871719 674.964172,217.799622 
	C677.613586,213.452011 682.970886,211.193817 687.356995,212.764816 
	C689.055481,213.373184 690.594421,214.427017 692.492493,215.528656 
z"/>
<path fill="#000000" opacity="1.000000" stroke="none" 
	d="
M694.523621,789.646179 
	C691.645203,790.561218 688.769714,794.682373 686.605469,790.694397 
	C684.336975,786.514343 689.445862,785.221069 691.677551,784.498108 
	C695.773132,783.171143 698.724792,780.029541 703.404663,778.582153 
	C700.573792,782.702209 700.234009,787.936829 694.523621,789.646179 
z"/>
<path fill="#000000" opacity="1.000000" stroke="none" 
	d="
M200.386154,363.351227 
	C201.800507,360.512817 204.103668,360.038971 206.021194,361.274475 
	C208.474136,362.855011 206.028992,364.499146 205.483948,366.257751 
	C204.245087,370.254883 203.092728,374.251770 201.328568,378.067383 
	C200.894760,379.005646 200.749741,380.064545 199.508774,379.963806 
	C198.976120,379.920532 198.300812,379.431244 198.011551,378.951080 
	C196.106781,375.789398 197.461853,366.454651 200.386154,363.351227 
z"/>
<path fill="#000000" opacity="1.000000" stroke="none" 
	d="
M387.722900,804.094971 
	C388.640961,803.003418 389.996887,802.436523 390.570862,802.946594 
	C394.798889,806.703979 401.715912,804.340332 405.370819,809.663818 
	C402.792267,814.383057 398.187103,812.381775 394.789795,811.979553 
	C391.095551,811.542297 388.541931,808.324951 387.722900,804.094971 
z"/>
<path fill="#000000" opacity="1.000000" stroke="none" 
	d="
M290.926758,740.923889 
	C281.136078,742.130493 276.529236,737.633911 278.565155,728.255554 
	C283.294403,732.165649 288.303070,735.094055 290.926758,740.923889 
z"/>
<path fill="#000000" opacity="1.000000" stroke="none" 
	d="
M807.884521,664.091187 
	C811.173584,664.796387 812.178711,666.512207 812.340942,669.499939 
	C812.666077,675.487061 812.182312,680.793884 806.845520,684.912415 
	C803.027527,687.858826 795.914124,688.160767 792.219116,685.014404 
	C786.733826,680.343689 785.525024,675.970642 789.293030,668.898499 
	C792.919250,662.092407 801.129639,658.747864 807.884521,664.091187 
z"/>
<path fill="#000000" opacity="1.000000" stroke="none" 
	d="
M552.196533,144.161896 
	C553.511169,145.591034 555.809631,145.562729 555.833557,148.708664 
	C550.049805,149.872833 544.135376,149.245789 537.825073,149.066254 
	C541.077698,142.299911 546.587830,143.581543 552.196533,144.161896 
z"/>
</svg>